<svg width="313" height="111" viewBox="0 0 313 111" fill="none" xmlns="http://www.w3.org/2000/svg">
<g filter="url(#filter0_i_42_3302)">
<g clip-path="url(#clip0_42_3302)">
<path d="M176.48 364.161C176.48 364.161 452.176 78.1205 549.676 117.122C647.177 156.123 621.676 241.122 672.176 307.122C722.677 373.122 923.885 360.167 923.885 360.167" stroke="white" stroke-opacity="0.02" stroke-width="32"/>
<g filter="url(#filter1_f_42_3302)">
<path d="M176.48 364.161C176.48 364.161 452.176 78.1205 549.676 117.122C647.177 156.123 621.676 241.122 672.176 307.122C722.677 373.122 923.885 360.167 923.885 360.167" stroke="white" stroke-opacity="0.02" stroke-width="32"/>
</g>
<path d="M265.126 41.7523C262.99 41.7523 261.25 40.0131 261.25 37.8786C261.25 35.7441 262.99 34.0049 265.126 34.0049C267.263 34.0049 269.003 35.7441 269.003 37.8786C268.963 40.0131 267.223 41.7523 265.126 41.7523ZM265.126 34.6769C263.346 34.6769 261.922 36.0999 261.922 37.8786C261.922 39.6574 263.386 41.0804 265.126 41.0804C266.907 41.0804 268.331 39.6574 268.331 37.8786C268.291 36.0999 266.867 34.6769 265.126 34.6769Z" fill="#E01B22"/>
<path d="M265.799 39.7364L265.087 38.3529H264.454V39.7364H263.781V36.0603H265.126C265.601 36.0603 265.957 36.1394 266.273 36.4951C266.432 36.7323 266.511 36.9694 266.511 37.2066C266.511 37.6809 266.234 38.1158 265.759 38.2343L266.59 39.7364H265.799ZM265.126 36.6532C264.889 36.6532 264.691 36.6532 264.493 36.6532V37.7995H264.928C265.363 37.7995 265.838 37.76 265.838 37.2066C265.799 36.8113 265.482 36.6532 265.126 36.6532Z" fill="#E01B22"/>
<path d="M61.611 70.6078C56.6665 70.6078 53.7393 66.5759 53.7393 61.0025C53.7393 54.7571 57.1807 51.3577 61.4923 51.3577C65.8039 51.3577 67.3862 53.3736 67.9399 55.4291L75.2578 53.5712C73.636 49.9347 69.6409 44.7565 61.7296 44.7565C52.8691 44.6775 45.9863 51.6344 45.9863 61.1606C45.9863 71.003 52.79 77.5647 61.4923 77.5647C66.951 77.5647 73.1218 74.5606 75.5743 67.8408L67.9004 66.3388C66.9115 68.8685 66.3577 70.6078 61.611 70.6078Z" fill="#E01B22"/>
<path d="M78.4238 34.2026H86.2164V76.8532H78.4238V34.2026Z" fill="#E01B22"/>
<path d="M113.826 46.6934C111.057 45.0728 108.09 44.6775 105.084 44.6775C103.106 44.6775 96.3025 44.6775 93.2963 50.1323C92.3074 51.9111 92.1887 53.2155 92.07 54.7176H99.7439C99.7439 54.0061 99.8626 53.2946 100.495 52.504C101.247 51.5158 102.315 50.4881 105.4 50.4881C110.582 50.4881 110.78 53.927 110.78 55.4686C107.339 56.2196 108.169 56.0615 102.078 57.3659C98.399 58.1565 93.6523 59.1052 91.358 63.6114C90.7251 64.8762 90.3691 66.2992 90.3691 67.8408C90.3691 73.2166 94.6412 77.5647 101.682 77.5647C105.954 77.5647 108.921 75.7859 110.503 74.4025V76.8137H118.177V56.4963C118.177 53.1365 117.505 48.9465 113.826 46.6934ZM110.741 64.6391C110.741 65.5877 110.741 66.5364 110.305 67.4456C109.514 69.3034 106.785 71.1612 102.988 71.1612C100.021 71.1612 97.9639 69.8963 97.9639 67.4851C97.9639 64.1647 101.722 63.4137 104.372 62.8603C107.932 62.1488 110.741 61.5559 110.741 61.5559V64.6391Z" fill="#E01B22"/>
<path d="M167.265 46.6934C164.496 45.0728 161.53 44.6775 158.523 44.6775C156.546 44.6775 149.742 44.6775 146.736 50.1323C145.747 51.9111 145.628 53.2155 145.509 54.7176H153.183C153.183 54.0061 153.302 53.2946 153.935 52.504C154.686 51.5158 155.754 50.4881 158.84 50.4881C164.022 50.4881 164.219 53.927 164.219 55.4686C160.778 56.2196 161.609 56.0615 155.517 57.3659C151.838 58.1565 147.052 59.1052 144.797 63.6114C144.165 64.8762 143.809 66.2992 143.809 67.8408C143.809 73.2166 148.081 77.5647 155.122 77.5647C159.394 77.5647 162.36 75.7859 163.943 74.4025V76.8137H171.616V56.4568C171.577 53.1365 170.944 48.9465 167.265 46.6934ZM164.14 64.6391C164.14 65.5877 164.14 66.5364 163.705 67.4456C162.914 69.3034 160.185 71.1612 156.387 71.1612C153.421 71.1612 151.364 69.8963 151.364 67.4851C151.364 64.1647 155.122 63.4137 157.772 62.8603C161.292 62.1488 164.14 61.5559 164.14 61.5559V64.6391Z" fill="#E01B22"/>
<path d="M132.535 49.2627V45.389H124.742V76.8532H132.535V64.0461C132.535 56.2987 134.275 54.8756 135.778 53.8479C138.191 52.2273 142.542 52.6621 142.542 52.6621V45.0332C134.71 45.0332 132.535 49.2627 132.535 49.2627Z" fill="#E01B22"/>
<path d="M257.967 70.924C254.368 70.924 254.368 69.7777 254.368 65.8645V50.9229H260.222V45.389H254.368V34.2026H246.813V45.389H242.58V50.9229H246.813V67.0898C246.813 70.2521 246.813 72.268 247.327 73.5329C248.79 77.3671 254.051 77.5647 255.634 77.5647C256.86 77.5647 258.323 77.288 260.341 77.1299V70.8845C259.273 70.924 258.482 70.924 257.967 70.924Z" fill="#E01B22"/>
<path d="M194.282 44.717C191.196 44.717 187.913 46.1796 185.619 48.4722V45.389H178.103V76.8532H185.619V61.0025C185.619 60.8049 185.619 57.5241 185.619 57.2869C185.619 54.0061 188.151 51.1601 192.146 51.1601C195.587 51.1601 198.079 53.2946 198.079 57.4055V76.8532H205.397V56.9312C205.397 55.2315 205.397 53.5713 204.883 51.9506C203.419 47.1678 199.028 44.717 194.282 44.717Z" fill="#E01B22"/>
<path d="M225.294 44.717C216.394 44.8356 209.867 51.3182 209.867 60.8839C209.867 61.5164 209.986 62.8208 209.986 62.8208C210.896 72.9004 218.649 77.6042 226.323 77.6042C232.691 77.6042 236.607 75.2326 240.484 70.0149L235.064 65.9435C234.115 67.2479 231.307 70.7659 226.204 70.7659C221.299 70.7659 217.937 67.4851 217.027 62.8208L240.484 62.7813C240.484 51.6739 234.471 44.717 225.294 44.717ZM217.739 57.0497C217.739 57.0497 218.649 50.4486 225.136 50.4486C231.583 50.4486 232.928 57.0497 232.928 57.0497H217.739Z" fill="#E01B22"/>
</g>
<path d="M4.98047 1.66089H308.428C310.085 1.66089 311.428 3.00403 311.428 4.66089V106.909C311.428 108.565 310.085 109.909 308.428 109.909H4.98047C3.32361 109.909 1.98047 108.565 1.98047 106.909V4.66089C1.98047 3.00404 3.32362 1.66089 4.98047 1.66089Z" stroke="white" stroke-opacity="0.24" stroke-width="2"/>
</g>
<defs>
<filter id="filter0_i_42_3302" x="-119.02" y="-119.339" width="551.447" height="350.248" filterUnits="userSpaceOnUse" color-interpolation-filters="sRGB">
<feFlood flood-opacity="0" result="BackgroundImageFix"/>
<feBlend mode="normal" in="SourceGraphic" in2="BackgroundImageFix" result="shape"/>
<feColorMatrix in="SourceAlpha" type="matrix" values="0 0 0 0 0 0 0 0 0 0 0 0 0 0 0 0 0 0 127 0" result="hardAlpha"/>
<feOffset dy="4"/>
<feGaussianBlur stdDeviation="2"/>
<feComposite in2="hardAlpha" operator="arithmetic" k2="-1" k3="1"/>
<feColorMatrix type="matrix" values="0 0 0 0 1 0 0 0 0 1 0 0 0 0 1 0 0 0 0.08 0"/>
<feBlend mode="normal" in2="shape" result="effect1_innerShadow_42_3302"/>
</filter>
<filter id="filter1_f_42_3302" x="122.966" y="55.4673" width="843.94" height="363.729" filterUnits="userSpaceOnUse" color-interpolation-filters="sRGB">
<feFlood flood-opacity="0" result="BackgroundImageFix"/>
<feBlend mode="normal" in="SourceGraphic" in2="BackgroundImageFix" result="shape"/>
<feGaussianBlur stdDeviation="21" result="effect1_foregroundBlur_42_3302"/>
</filter>
<clipPath id="clip0_42_3302">
<path d="M0.980469 4.66089C0.980469 2.45175 2.77133 0.660889 4.98047 0.660889H308.428C310.637 0.660889 312.428 2.45175 312.428 4.66089V106.909C312.428 109.118 310.637 110.909 308.428 110.909H4.98047C2.77133 110.909 0.980469 109.118 0.980469 106.909V4.66089Z" fill="white"/>
</clipPath>
</defs>
</svg>
