<svg version="1.1" viewBox="0.0 0.0 640.3202099737533 540.0" fill="none" stroke="none" stroke-linecap="square" stroke-miterlimit="10" xmlns:xlink="http://www.w3.org/1999/xlink" xmlns="http://www.w3.org/2000/svg"><clipPath id="g3428a078a14_0_150.0"><path d="m0 0l640.3202 0l0 540.0l-640.3202 0l0 -540.0z" clip-rule="nonzero"/></clipPath><g clip-path="url(#g3428a078a14_0_150.0)"><path fill="#ffffff" d="m0 0l640.3202 0l0 540.0l-640.3202 0z" fill-rule="evenodd"/><path fill="#000000" fill-opacity="0.0" d="m48.241695 270.0227l0 0c0 -141.11528 121.024124 -255.51181 270.31494 -255.51181l0 0c71.691986 0 140.44766 26.919918 191.14157 74.83768c50.69388 47.917763 79.17343 112.908195 79.17343 180.67413l0 0c0 141.11526 -121.02417 255.51178 -270.315 255.51178l0 0c-149.29082 0 -270.31494 -114.396515 -270.31494 -255.51178z" fill-rule="evenodd"/><path stroke="#ac945d" stroke-width="3.0" stroke-linejoin="round" stroke-linecap="butt" stroke-dasharray="24.0,9.0" d="m48.241695 270.0227l0 0c0 -141.11528 121.024124 -255.51181 270.31494 -255.51181l0 0c71.691986 0 140.44766 26.919918 191.14157 74.83768c50.69388 47.917763 79.17343 112.908195 79.17343 180.67413l0 0c0 141.11526 -121.02417 255.51178 -270.315 255.51178l0 0c-149.29082 0 -270.31494 -114.396515 -270.31494 -255.51178z" fill-rule="evenodd"/><path fill="#000000" fill-opacity="0.0" d="m17.062338 487.0433l29.417322 0l0 52.97641l-29.417322 0z" fill-rule="evenodd"/><path fill="#595959" d="m37.03594 518.3315l-1.171875 0l0 -7.46875q-0.421875 0.40625 -1.109375 0.8125q-0.6875 0.40625 -1.234375 0.609375l0 -1.140625q0.984375 -0.453125 1.71875 -1.109375q0.734375 -0.671875 1.03125 -1.28125l0.765625 0l0 9.578125z" fill-rule="nonzero"/><path fill="#353689" d="m203.14948 270.0077l0 0c0 -63.412735 51.65999 -114.81891 115.38583 -114.81891l0 0c30.602203 0 59.95105 12.096954 81.59009 33.62967c21.639038 21.53273 33.795746 50.737366 33.795746 81.18924l0 0c0 63.41272 -51.660004 114.81888 -115.38583 114.81888l0 0c-63.725845 0 -115.38583 -51.40616 -115.38583 -114.81888z" fill-rule="evenodd"/><path stroke="#ac945d" stroke-width="4.0" stroke-linejoin="round" stroke-linecap="butt" d="m203.14948 270.0077l0 0c0 -63.412735 51.65999 -114.81891 115.38583 -114.81891l0 0c30.602203 0 59.95105 12.096954 81.59009 33.62967c21.639038 21.53273 33.795746 50.737366 33.795746 81.18924l0 0c0 63.41272 -51.660004 114.81888 -115.38583 114.81888l0 0c-63.725845 0 -115.38583 -51.40616 -115.38583 -114.81888z" fill-rule="evenodd"/><path fill="#ffffff" d="m261.24527 277.20767l-3.4375 0l-3.734375 -6.015625l-1.28125 0.921875l0 5.09375l-3.03125 0l0 -14.28125l3.03125 0l0 6.53125q0.296875 -0.421875 0.59375 -0.828125q0.296875 -0.421875 0.59375 -0.84375l3.875 -4.859375l3.359375 0l-4.984375 6.328125l5.015625 7.953125zm11.484375 -5.484375q0 1.375 -0.375 2.4375q-0.359375 1.046875 -1.0625 1.78125q-0.6875 0.71875 -1.671875 1.09375q-0.984375 0.375 -2.21875 0.375q-1.140625 0 -2.109375 -0.375q-0.953125 -0.375 -1.671875 -1.09375q-0.703125 -0.734375 -1.09375 -1.78125q-0.375 -1.0625 -0.375 -2.4375q0 -1.8125 0.640625 -3.0625q0.640625 -1.265625 1.828125 -1.921875q1.203125 -0.65625 2.84375 -0.65625q1.53125 0 2.71875 0.65625q1.1875 0.65625 1.859375 1.921875q0.6875 1.25 0.6875 3.0625zm-7.546875 0q0 1.078125 0.234375 1.8125q0.234375 0.734375 0.734375 1.109375q0.5 0.359375 1.296875 0.359375q0.796875 0 1.28125 -0.359375q0.5 -0.375 0.71875 -1.109375q0.234375 -0.734375 0.234375 -1.8125q0 -1.078125 -0.234375 -1.796875q-0.21875 -0.71875 -0.71875 -1.078125q-0.5 -0.359375 -1.296875 -0.359375q-1.1875 0 -1.71875 0.8125q-0.53125 0.8125 -0.53125 2.421875zm16.210938 -5.640625q1.75 0 2.8125 0.953125q1.0625 0.953125 1.0625 3.046875l0 7.125l-2.984375 0l0 -6.375q0 -1.171875 -0.421875 -1.765625q-0.421875 -0.59375 -1.328125 -0.59375q-1.375 0 -1.875 0.921875q-0.484375 0.921875 -0.484375 2.671875l0 5.140625l-2.984375 0l0 -10.921875l2.28125 0l0.390625 1.40625l0.171875 0q0.34375 -0.578125 0.859375 -0.921875q0.53125 -0.359375 1.171875 -0.515625q0.640625 -0.171875 1.328125 -0.171875zm9.535156 11.125l-4.15625 -10.921875l3.109375 0l2.109375 6.21875q0.1875 0.546875 0.28125 1.15625q0.109375 0.609375 0.140625 1.078125l0.078125 0q0.03125 -0.515625 0.140625 -1.09375q0.125 -0.59375 0.296875 -1.140625l2.109375 -6.21875l3.109375 0l-4.15625 10.921875l-3.0625 0zm13.283203 -11.125q1.515625 0 2.609375 0.578125q1.09375 0.578125 1.6875 1.6875q0.59375 1.109375 0.59375 2.703125l0 1.4375l-7.03125 0q0.046875 1.265625 0.75 1.984375q0.703125 0.71875 1.96875 0.71875q1.046875 0 1.90625 -0.21875q0.875 -0.21875 1.796875 -0.640625l0 2.296875q-0.8125 0.40625 -1.703125 0.59375q-0.875 0.1875 -2.140625 0.1875q-1.640625 0 -2.90625 -0.609375q-1.265625 -0.609375 -1.984375 -1.84375q-0.703125 -1.25 -0.703125 -3.125q0 -1.921875 0.640625 -3.1875q0.65625 -1.28125 1.8125 -1.921875q1.15625 -0.640625 2.703125 -0.640625zm0.015625 2.125q-0.859375 0 -1.4375 0.5625q-0.5625 0.546875 -0.65625 1.734375l4.1875 0q-0.015625 -0.65625 -0.25 -1.171875q-0.21875 -0.53125 -0.6875 -0.828125q-0.453125 -0.296875 -1.15625 -0.296875zm5.7382812 -1.921875l3.265625 0l2.0625 6.140625q0.09375 0.296875 0.15625 0.609375q0.078125 0.296875 0.125 0.625q0.046875 0.3125 0.078125 0.671875l0.0625 0q0.046875 -0.53125 0.140625 -0.984375q0.109375 -0.46875 0.265625 -0.921875l2.03125 -6.140625l3.1875 0l-4.609375 12.3125q-0.421875 1.140625 -1.109375 1.890625q-0.671875 0.765625 -1.546875 1.140625q-0.859375 0.390625 -1.90625 0.390625q-0.515625 0 -0.890625 -0.0625q-0.359375 -0.046875 -0.625 -0.109375l0 -2.359375q0.203125 0.046875 0.515625 0.078125q0.3125 0.046875 0.65625 0.046875q0.625 0 1.0625 -0.265625q0.453125 -0.265625 0.75 -0.71875q0.3125 -0.4375 0.484375 -0.96875l0.1875 -0.53125l-4.34375 -10.84375zm22.861328 5.4375q0 1.375 -0.375 2.4375q-0.359375 1.046875 -1.0625 1.78125q-0.6875 0.71875 -1.671875 1.09375q-0.984375 0.375 -2.21875 0.375q-1.140625 0 -2.109375 -0.375q-0.953125 -0.375 -1.671875 -1.09375q-0.703125 -0.734375 -1.09375 -1.78125q-0.375 -1.0625 -0.375 -2.4375q0 -1.8125 0.640625 -3.0625q0.640625 -1.265625 1.828125 -1.921875q1.203125 -0.65625 2.84375 -0.65625q1.53125 0 2.71875 0.65625q1.1875 0.65625 1.859375 1.921875q0.6875 1.25 0.6875 3.0625zm-7.546875 0q0 1.078125 0.234375 1.8125q0.234375 0.734375 0.734375 1.109375q0.5 0.359375 1.296875 0.359375q0.796875 0 1.28125 -0.359375q0.5 -0.375 0.71875 -1.109375q0.234375 -0.734375 0.234375 -1.8125q0 -1.078125 -0.234375 -1.796875q-0.21875 -0.71875 -0.71875 -1.078125q-0.5 -0.359375 -1.296875 -0.359375q-1.1875 0 -1.71875 0.8125q-0.53125 0.8125 -0.53125 2.421875zm16.101562 -5.640625q0.21875 0 0.515625 0.03125q0.3125 0.015625 0.484375 0.0625l-0.21875 2.78125q-0.140625 -0.046875 -0.421875 -0.0625q-0.265625 -0.03125 -0.453125 -0.03125q-0.578125 0 -1.125 0.15625q-0.53125 0.140625 -0.96875 0.46875q-0.421875 0.328125 -0.671875 0.859375q-0.25 0.53125 -0.25 1.296875l0 5.5625l-2.984375 0l0 -10.921875l2.25 0l0.453125 1.84375l0.140625 0q0.328125 -0.5625 0.796875 -1.015625q0.484375 -0.46875 1.109375 -0.75q0.625 -0.28125 1.34375 -0.28125zm20.121094 11.125l-3.015625 0l0 -6.15625l-5.65625 0l0 6.15625l-3.03125 0l0 -14.28125l3.03125 0l0 5.59375l5.65625 0l0 -5.59375l3.015625 0l0 14.28125zm13.380859 -10.921875l0 10.921875l-2.28125 0l-0.40625 -1.390625l-0.15625 0q-0.34375 0.546875 -0.875 0.90625q-0.53125 0.34375 -1.171875 0.515625q-0.625 0.171875 -1.3125 0.171875q-1.171875 0 -2.046875 -0.421875q-0.859375 -0.421875 -1.34375 -1.296875q-0.484375 -0.875 -0.484375 -2.28125l0 -7.125l2.984375 0l0 6.375q0 1.171875 0.421875 1.78125q0.421875 0.59375 1.328125 0.59375q0.921875 0 1.4375 -0.421875q0.515625 -0.421875 0.71875 -1.21875q0.21875 -0.8125 0.21875 -1.96875l0 -5.140625l2.96875 0zm6.1132812 -4.28125l0 3.546875q0 0.609375 -0.046875 1.21875q-0.03125 0.609375 -0.078125 0.9375l0.125 0q0.421875 -0.671875 1.15625 -1.140625q0.75 -0.484375 1.9375 -0.484375q1.828125 0 2.96875 1.4375q1.15625 1.4375 1.15625 4.203125q0 1.875 -0.53125 3.140625q-0.53125 1.265625 -1.484375 1.90625q-0.9375 0.640625 -2.1875 0.640625q-1.203125 0 -1.90625 -0.4375q-0.6875 -0.4375 -1.109375 -0.96875l-0.203125 0l-0.5 1.203125l-2.28125 0l0 -15.203125l2.984375 0zm2.140625 6.46875q-0.78125 0 -1.25 0.328125q-0.453125 0.3125 -0.671875 0.953125q-0.203125 0.640625 -0.21875 1.625l0 0.328125q0 1.59375 0.46875 2.4375q0.46875 0.84375 1.703125 0.84375q0.921875 0 1.453125 -0.84375q0.546875 -0.859375 0.546875 -2.453125q0 -1.609375 -0.546875 -2.40625q-0.546875 -0.8125 -1.484375 -0.8125z" fill-rule="nonzero"/><path fill="#353689" d="m521.548 270.00003l0 0c0 -33.32843 26.58789 -60.346466 59.385803 -60.346466l0 0c15.750122 0 30.855103 6.35791 41.992126 17.675064c11.137024 11.317154 17.393677 26.66652 17.393677 42.671402l0 0c0 33.32843 -26.58789 60.346436 -59.385803 60.346436l0 0c-32.797913 0 -59.385803 -27.018005 -59.385803 -60.346436z" fill-rule="evenodd"/><path stroke="#ac945d" stroke-width="4.0" stroke-linejoin="round" stroke-linecap="butt" d="m521.548 270.00003l0 0c0 -33.32843 26.58789 -60.346466 59.385803 -60.346466l0 0c15.750122 0 30.855103 6.35791 41.992126 17.675064c11.137024 11.317154 17.393677 26.66652 17.393677 42.671402l0 0c0 33.32843 -26.58789 60.346436 -59.385803 60.346436l0 0c-32.797913 0 -59.385803 -27.018005 -59.385803 -60.346436z" fill-rule="evenodd"/><path fill="#000000" fill-opacity="0.0" d="m521.548 252.67157l118.77161 0l0 34.70865l-118.77161 0z" fill-rule="evenodd"/><path fill="#ffffff" d="m538.0437 273.8659l-0.546875 -1.8125l-2.765625 0l-0.5625 1.8125l-1.734375 0l2.6875 -7.640625l1.96875 0l2.703125 7.640625l-1.75 0zm-0.9375 -3.15625l-0.546875 -1.78125q-0.046875 -0.171875 -0.140625 -0.453125q-0.078125 -0.28125 -0.171875 -0.5625q-0.078125 -0.296875 -0.140625 -0.5q-0.046875 0.203125 -0.140625 0.53125q-0.09375 0.3125 -0.171875 0.59375q-0.078125 0.28125 -0.125 0.390625l-0.546875 1.78125l1.984375 0zm7.570923 1.421875q0 0.59375 -0.28125 1.015625q-0.28125 0.40625 -0.828125 0.625q-0.546875 0.203125 -1.375 0.203125q-0.609375 0 -1.046875 -0.078125q-0.421875 -0.078125 -0.875 -0.265625l0 -1.3125q0.484375 0.21875 1.015625 0.359375q0.546875 0.125 0.96875 0.125q0.453125 0 0.65625 -0.125q0.203125 -0.140625 0.203125 -0.375q0 -0.140625 -0.09375 -0.25q-0.078125 -0.125 -0.34375 -0.265625q-0.25 -0.15625 -0.828125 -0.390625q-0.546875 -0.234375 -0.90625 -0.46875q-0.34375 -0.234375 -0.515625 -0.546875q-0.15625 -0.328125 -0.15625 -0.8125q0 -0.8125 0.625 -1.21875q0.625 -0.40625 1.671875 -0.40625q0.546875 0 1.03125 0.109375q0.5 0.109375 1.015625 0.34375l-0.484375 1.140625q-0.421875 -0.1875 -0.8125 -0.296875q-0.375 -0.125 -0.78125 -0.125q-0.34375 0 -0.515625 0.09375q-0.171875 0.09375 -0.171875 0.28125q0 0.140625 0.078125 0.25q0.09375 0.109375 0.359375 0.25q0.265625 0.125 0.765625 0.34375q0.5 0.203125 0.859375 0.421875q0.375 0.21875 0.5625 0.546875q0.203125 0.3125 0.203125 0.828125zm5.296936 0q0 0.59375 -0.28125 1.015625q-0.28125 0.40625 -0.828125 0.625q-0.546875 0.203125 -1.375 0.203125q-0.609375 0 -1.046875 -0.078125q-0.421875 -0.078125 -0.875 -0.265625l0 -1.3125q0.484375 0.21875 1.015625 0.359375q0.546875 0.125 0.96875 0.125q0.453125 0 0.65625 -0.125q0.203125 -0.140625 0.203125 -0.375q0 -0.140625 -0.09375 -0.25q-0.078125 -0.125 -0.34375 -0.265625q-0.25 -0.15625 -0.828125 -0.390625q-0.546875 -0.234375 -0.90625 -0.46875q-0.34375 -0.234375 -0.515625 -0.546875q-0.15625 -0.328125 -0.15625 -0.8125q0 -0.8125 0.625 -1.21875q0.625 -0.40625 1.671875 -0.40625q0.546875 0 1.03125 0.109375q0.5 0.109375 1.015625 0.34375l-0.484375 1.140625q-0.421875 -0.1875 -0.8125 -0.296875q-0.375 -0.125 -0.78125 -0.125q-0.34375 0 -0.515625 0.09375q-0.171875 0.09375 -0.171875 0.28125q0 0.140625 0.078125 0.25q0.09375 0.109375 0.359375 0.25q0.265625 0.125 0.765625 0.34375q0.5 0.203125 0.859375 0.421875q0.375 0.21875 0.5625 0.546875q0.203125 0.3125 0.203125 0.828125zm3.640625 -4.1875q0.796875 0 1.375 0.3125q0.59375 0.296875 0.90625 0.890625q0.328125 0.59375 0.328125 1.4375l0 0.765625l-3.75 0q0.015625 0.671875 0.390625 1.0625q0.375 0.375 1.046875 0.375q0.5625 0 1.015625 -0.109375q0.46875 -0.125 0.96875 -0.34375l0 1.21875q-0.4375 0.21875 -0.90625 0.3125q-0.46875 0.109375 -1.140625 0.109375q-0.875 0 -1.546875 -0.328125q-0.671875 -0.328125 -1.0625 -0.984375q-0.375 -0.65625 -0.375 -1.65625q0 -1.03125 0.34375 -1.703125q0.34375 -0.6875 0.953125 -1.015625q0.625 -0.34375 1.453125 -0.34375zm0 1.125q-0.453125 0 -0.765625 0.296875q-0.296875 0.296875 -0.34375 0.9375l2.21875 0q0 -0.359375 -0.125 -0.625q-0.125 -0.28125 -0.375 -0.4375q-0.234375 -0.171875 -0.609375 -0.171875zm6.3428345 3.640625q0.265625 0 0.5 -0.046875q0.25 -0.0625 0.5 -0.140625l0 1.1875q-0.25 0.109375 -0.640625 0.1875q-0.375 0.078125 -0.8125 0.078125q-0.515625 0 -0.9375 -0.171875q-0.40625 -0.171875 -0.65625 -0.59375q-0.234375 -0.421875 -0.234375 -1.171875l0 -2.796875l-0.75 0l0 -0.671875l0.875 -0.53125l0.453125 -1.234375l1.015625 0l0 1.25l1.625 0l0 1.1875l-1.625 0l0 2.796875q0 0.34375 0.1875 0.515625q0.1875 0.15625 0.5 0.15625zm6.2350464 -0.578125q0 0.59375 -0.28125 1.015625q-0.28125 0.40625 -0.828125 0.625q-0.546875 0.203125 -1.375 0.203125q-0.609375 0 -1.046875 -0.078125q-0.421875 -0.078125 -0.875 -0.265625l0 -1.3125q0.484375 0.21875 1.015625 0.359375q0.546875 0.125 0.96875 0.125q0.453125 0 0.65625 -0.125q0.203125 -0.140625 0.203125 -0.375q0 -0.140625 -0.09375 -0.25q-0.078125 -0.125 -0.34375 -0.265625q-0.25 -0.15625 -0.828125 -0.390625q-0.546875 -0.234375 -0.90625 -0.46875q-0.34375 -0.234375 -0.515625 -0.546875q-0.15625 -0.328125 -0.15625 -0.8125q0 -0.8125 0.625 -1.21875q0.625 -0.40625 1.671875 -0.40625q0.546875 0 1.03125 0.109375q0.5 0.109375 1.015625 0.34375l-0.484375 1.140625q-0.421875 -0.1875 -0.8125 -0.296875q-0.375 -0.125 -0.78125 -0.125q-0.34375 0 -0.515625 0.09375q-0.171875 0.09375 -0.171875 0.28125q0 0.140625 0.078125 0.25q0.09375 0.109375 0.359375 0.25q0.265625 0.125 0.765625 0.34375q0.5 0.203125 0.859375 0.421875q0.375 0.21875 0.5625 0.546875q0.203125 0.3125 0.203125 0.828125zm7.0181274 -2.53125l3.015625 0l0 3.9375q-0.59375 0.203125 -1.25 0.328125q-0.640625 0.109375 -1.453125 0.109375q-1.140625 0 -1.9375 -0.453125q-0.78125 -0.453125 -1.1875 -1.328125q-0.40625 -0.875 -0.40625 -2.140625q0 -1.203125 0.453125 -2.078125q0.46875 -0.875 1.34375 -1.34375q0.890625 -0.484375 2.171875 -0.484375q0.609375 0 1.1875 0.140625q0.59375 0.125 1.078125 0.328125l-0.546875 1.296875q-0.34375 -0.1875 -0.796875 -0.296875q-0.4375 -0.125 -0.9375 -0.125q-0.703125 0 -1.21875 0.328125q-0.515625 0.3125 -0.796875 0.90625q-0.28125 0.578125 -0.28125 1.359375q0 0.75 0.203125 1.328125q0.203125 0.5625 0.640625 0.890625q0.4375 0.328125 1.140625 0.328125q0.34375 0 0.578125 -0.03125q0.234375 -0.046875 0.4375 -0.078125l0 -1.578125l-1.4375 0l0 -1.34375zm7.1070557 -1.65625q0.796875 0 1.375 0.3125q0.59375 0.296875 0.90625 0.890625q0.328125 0.59375 0.328125 1.4375l0 0.765625l-3.75 0q0.015625 0.671875 0.390625 1.0625q0.375 0.375 1.046875 0.375q0.5625 0 1.015625 -0.109375q0.46875 -0.125 0.96875 -0.34375l0 1.21875q-0.4375 0.21875 -0.90625 0.3125q-0.46875 0.109375 -1.140625 0.109375q-0.875 0 -1.546875 -0.328125q-0.671875 -0.328125 -1.0625 -0.984375q-0.375 -0.65625 -0.375 -1.65625q0 -1.03125 0.34375 -1.703125q0.34375 -0.6875 0.953125 -1.015625q0.625 -0.34375 1.453125 -0.34375zm0 1.125q-0.453125 0 -0.765625 0.296875q-0.296875 0.296875 -0.34375 0.9375l2.21875 0q0 -0.359375 -0.125 -0.625q-0.125 -0.28125 -0.375 -0.4375q-0.234375 -0.171875 -0.609375 -0.171875zm7.2022095 -1.125q0.921875 0 1.484375 0.515625q0.578125 0.5 0.578125 1.609375l0 3.796875l-1.59375 0l0 -3.390625q0 -0.625 -0.234375 -0.9375q-0.21875 -0.328125 -0.703125 -0.328125q-0.71875 0 -0.984375 0.5q-0.265625 0.484375 -0.265625 1.421875l0 2.734375l-1.59375 0l0 -5.8125l1.21875 0l0.21875 0.734375l0.078125 0q0.1875 -0.296875 0.46875 -0.484375q0.28125 -0.1875 0.609375 -0.265625q0.34375 -0.09375 0.71875 -0.09375zm6.09729 0q0.796875 0 1.375 0.3125q0.59375 0.296875 0.90625 0.890625q0.328125 0.59375 0.328125 1.4375l0 0.765625l-3.75 0q0.015625 0.671875 0.390625 1.0625q0.375 0.375 1.046875 0.375q0.5625 0 1.015625 -0.109375q0.46875 -0.125 0.96875 -0.34375l0 1.21875q-0.4375 0.21875 -0.90625 0.3125q-0.46875 0.109375 -1.140625 0.109375q-0.875 0 -1.546875 -0.328125q-0.671875 -0.328125 -1.0625 -0.984375q-0.375 -0.65625 -0.375 -1.65625q0 -1.03125 0.34375 -1.703125q0.34375 -0.6875 0.953125 -1.015625q0.625 -0.34375 1.453125 -0.34375zm0 1.125q-0.453125 0 -0.765625 0.296875q-0.296875 0.296875 -0.34375 0.9375l2.21875 0q0 -0.359375 -0.125 -0.625q-0.125 -0.28125 -0.375 -0.4375q-0.234375 -0.171875 -0.609375 -0.171875zm7.1397095 -1.125q0.125 0 0.28125 0.015625q0.15625 0 0.25 0.03125l-0.109375 1.484375q-0.078125 -0.03125 -0.234375 -0.03125q-0.140625 -0.015625 -0.234375 -0.015625q-0.3125 0 -0.609375 0.078125q-0.28125 0.078125 -0.515625 0.25q-0.21875 0.171875 -0.359375 0.453125q-0.125 0.28125 -0.125 0.703125l0 2.953125l-1.59375 0l0 -5.8125l1.203125 0l0.234375 0.96875l0.078125 0q0.171875 -0.296875 0.421875 -0.53125q0.265625 -0.25 0.59375 -0.390625q0.328125 -0.15625 0.71875 -0.15625zm3.9796143 -0.015625q1.171875 0 1.796875 0.515625q0.625 0.5 0.625 1.546875l0 3.875l-1.109375 0l-0.3125 -0.796875l-0.046875 0q-0.25 0.3125 -0.515625 0.515625q-0.25 0.203125 -0.59375 0.296875q-0.328125 0.09375 -0.8125 0.09375q-0.515625 0 -0.921875 -0.203125q-0.40625 -0.203125 -0.640625 -0.609375q-0.234375 -0.40625 -0.234375 -1.03125q0 -0.9375 0.640625 -1.375q0.65625 -0.4375 1.953125 -0.484375l1.015625 -0.03125l0 -0.25q0 -0.453125 -0.25 -0.671875q-0.234375 -0.21875 -0.65625 -0.21875q-0.421875 0 -0.828125 0.125q-0.40625 0.125 -0.8125 0.296875l-0.53125 -1.0625q0.46875 -0.25 1.046875 -0.390625q0.578125 -0.140625 1.1875 -0.140625zm0.84375 3.25l-0.625 0.015625q-0.765625 0.015625 -1.0625 0.28125q-0.296875 0.25 -0.296875 0.65625q0 0.375 0.203125 0.53125q0.21875 0.140625 0.5625 0.140625q0.515625 0 0.859375 -0.296875q0.359375 -0.296875 0.359375 -0.859375l0 -0.46875zm5.6551514 1.53125q0.265625 0 0.5 -0.046875q0.25 -0.0625 0.5 -0.140625l0 1.1875q-0.25 0.109375 -0.640625 0.1875q-0.375 0.078125 -0.8125 0.078125q-0.515625 0 -0.9375 -0.171875q-0.40625 -0.171875 -0.65625 -0.59375q-0.234375 -0.421875 -0.234375 -1.171875l0 -2.796875l-0.75 0l0 -0.671875l0.875 -0.53125l0.453125 -1.234375l1.015625 0l0 1.25l1.625 0l0 1.1875l-1.625 0l0 2.796875q0 0.34375 0.1875 0.515625q0.1875 0.15625 0.5 0.15625zm3.7663574 -4.65625l0 5.8125l-1.59375 0l0 -5.8125l1.59375 0zm-0.796875 -2.28125q0.359375 0 0.609375 0.171875q0.265625 0.15625 0.265625 0.59375q0 0.453125 -0.265625 0.625q-0.25 0.15625 -0.609375 0.15625q-0.359375 0 -0.609375 -0.15625q-0.25 -0.171875 -0.25 -0.625q0 -0.4375 0.25 -0.59375q0.25 -0.171875 0.609375 -0.171875zm7.752014 5.171875q0 0.734375 -0.203125 1.296875q-0.1875 0.5625 -0.5625 0.953125q-0.375 0.375 -0.90625 0.578125q-0.515625 0.203125 -1.171875 0.203125q-0.609375 0 -1.125 -0.203125q-0.515625 -0.203125 -0.890625 -0.578125q-0.375 -0.390625 -0.578125 -0.953125q-0.203125 -0.5625 -0.203125 -1.296875q0 -0.96875 0.34375 -1.640625q0.34375 -0.671875 0.96875 -1.015625q0.640625 -0.34375 1.515625 -0.34375q0.8125 0 1.4375 0.34375q0.640625 0.34375 1.0 1.015625q0.375 0.671875 0.375 1.640625zm-4.03125 0q0 0.578125 0.125 0.96875q0.125 0.390625 0.390625 0.59375q0.265625 0.1875 0.6875 0.1875q0.421875 0 0.6875 -0.1875q0.265625 -0.203125 0.390625 -0.59375q0.125 -0.390625 0.125 -0.96875q0 -0.578125 -0.125 -0.953125q-0.125 -0.390625 -0.390625 -0.578125q-0.265625 -0.1875 -0.6875 -0.1875q-0.625 0 -0.921875 0.4375q-0.28125 0.421875 -0.28125 1.28125zm8.644592 -3.0q0.921875 0 1.484375 0.515625q0.578125 0.5 0.578125 1.609375l0 3.796875l-1.59375 0l0 -3.390625q0 -0.625 -0.234375 -0.9375q-0.21875 -0.328125 -0.703125 -0.328125q-0.71875 0 -0.984375 0.5q-0.265625 0.484375 -0.265625 1.421875l0 2.734375l-1.59375 0l0 -5.8125l1.21875 0l0.21875 0.734375l0.078125 0q0.1875 -0.296875 0.46875 -0.484375q0.28125 -0.1875 0.609375 -0.265625q0.34375 -0.09375 0.71875 -0.09375z" fill-rule="nonzero"/><path fill="#353689" d="m402.73953 471.20688l0 0c0 -33.32843 26.587952 -60.346466 59.385834 -60.346466l0 0c15.750092 0 30.855103 6.35791 41.992126 17.675049c11.136963 11.317169 17.393677 26.666534 17.393677 42.671417l0 0c0 33.3284 -26.587921 60.346466 -59.385803 60.346466l0 0c-32.797882 0 -59.385834 -27.018066 -59.385834 -60.346466z" fill-rule="evenodd"/><path stroke="#ac945d" stroke-width="4.0" stroke-linejoin="round" stroke-linecap="butt" d="m402.73953 471.20688l0 0c0 -33.32843 26.587952 -60.346466 59.385834 -60.346466l0 0c15.750092 0 30.855103 6.35791 41.992126 17.675049c11.136963 11.317169 17.393677 26.666534 17.393677 42.671417l0 0c0 33.3284 -26.587921 60.346466 -59.385803 60.346466l0 0c-32.797882 0 -59.385834 -27.018066 -59.385834 -60.346466z" fill-rule="evenodd"/><path fill="#000000" fill-opacity="0.0" d="m402.73953 453.87842l118.77164 0l0 34.70865l-118.77164 0z" fill-rule="evenodd"/><path fill="#ffffff" d="m439.09106 467.46338q1.03125 0 1.703125 0.25q0.6875 0.25 1.015625 0.765625q0.328125 0.5 0.328125 1.265625q0 0.515625 -0.203125 0.90625q-0.203125 0.390625 -0.53125 0.671875q-0.3125 0.265625 -0.6875 0.4375l2.234375 3.3125l-1.78125 0l-1.828125 -2.921875l-0.84375 0l0 2.921875l-1.625 0l0 -7.609375l2.21875 0zm-0.109375 1.328125l-0.484375 0l0 2.046875l0.515625 0q0.796875 0 1.140625 -0.265625q0.34375 -0.265625 0.34375 -0.78125q0 -0.546875 -0.375 -0.765625q-0.359375 -0.234375 -1.140625 -0.234375zm7.206665 0.359375q0.796875 0 1.375 0.3125q0.59375 0.296875 0.90625 0.890625q0.328125 0.59375 0.328125 1.4375l0 0.765625l-3.75 0q0.015625 0.671875 0.390625 1.0625q0.375 0.375 1.046875 0.375q0.5625 0 1.015625 -0.109375q0.46875 -0.125 0.96875 -0.34375l0 1.21875q-0.4375 0.21875 -0.90625 0.3125q-0.46875 0.109375 -1.140625 0.109375q-0.875 0 -1.546875 -0.328125q-0.671875 -0.328125 -1.0625 -0.984375q-0.375 -0.65625 -0.375 -1.65625q0 -1.03125 0.34375 -1.703125q0.34375 -0.6875 0.953125 -1.015625q0.625 -0.34375 1.453125 -0.34375zm0 1.125q-0.453125 0 -0.765625 0.296875q-0.296875 0.296875 -0.34375 0.9375l2.21875 0q0 -0.359375 -0.125 -0.625q-0.125 -0.28125 -0.375 -0.4375q-0.234375 -0.171875 -0.609375 -0.171875zm7.124054 -1.125q0.984375 0 1.59375 0.765625q0.609375 0.765625 0.609375 2.234375q0 0.984375 -0.296875 1.671875q-0.28125 0.671875 -0.78125 1.015625q-0.5 0.34375 -1.15625 0.34375q-0.421875 0 -0.734375 -0.109375q-0.296875 -0.109375 -0.515625 -0.28125q-0.203125 -0.171875 -0.359375 -0.359375l-0.078125 0q0.03125 0.203125 0.046875 0.421875q0.03125 0.21875 0.03125 0.4375l0 2.34375l-1.59375 0l0 -8.375l1.296875 0l0.21875 0.75l0.078125 0q0.15625 -0.234375 0.375 -0.421875q0.21875 -0.203125 0.53125 -0.3125q0.328125 -0.125 0.734375 -0.125zm-0.5 1.265625q-0.421875 0 -0.671875 0.171875q-0.234375 0.171875 -0.34375 0.515625q-0.109375 0.34375 -0.125 0.875l0 0.171875q0 0.546875 0.109375 0.9375q0.109375 0.390625 0.359375 0.59375q0.25 0.203125 0.6875 0.203125q0.359375 0 0.59375 -0.203125q0.234375 -0.203125 0.34375 -0.59375q0.125 -0.390625 0.125 -0.953125q0 -0.859375 -0.265625 -1.28125q-0.265625 -0.4375 -0.8125 -0.4375zm9.305908 1.734375q0 0.734375 -0.203125 1.296875q-0.1875 0.5625 -0.5625 0.953125q-0.375 0.375 -0.90625 0.578125q-0.515625 0.203125 -1.171875 0.203125q-0.609375 0 -1.125 -0.203125q-0.515625 -0.203125 -0.890625 -0.578125q-0.375 -0.390625 -0.578125 -0.953125q-0.203125 -0.5625 -0.203125 -1.296875q0 -0.96875 0.34375 -1.640625q0.34375 -0.671875 0.96875 -1.015625q0.640625 -0.34375 1.515625 -0.34375q0.8125 0 1.4375 0.34375q0.640625 0.34375 1.0 1.015625q0.375 0.671875 0.375 1.640625zm-4.03125 0q0 0.578125 0.125 0.96875q0.125 0.390625 0.390625 0.59375q0.265625 0.1875 0.6875 0.1875q0.421875 0 0.6875 -0.1875q0.265625 -0.203125 0.390625 -0.59375q0.125 -0.390625 0.125 -0.96875q0 -0.578125 -0.125 -0.953125q-0.125 -0.390625 -0.390625 -0.578125q-0.265625 -0.1875 -0.6875 -0.1875q-0.625 0 -0.921875 0.4375q-0.28125 0.421875 -0.28125 1.28125zm8.582092 -3.0q0.125 0 0.28125 0.015625q0.15625 0 0.25 0.03125l-0.109375 1.484375q-0.078125 -0.03125 -0.234375 -0.03125q-0.140625 -0.015625 -0.234375 -0.015625q-0.3125 0 -0.609375 0.078125q-0.28125 0.078125 -0.515625 0.25q-0.21875 0.171875 -0.359375 0.453125q-0.125 0.28125 -0.125 0.703125l0 2.953125l-1.59375 0l0 -5.8125l1.203125 0l0.234375 0.96875l0.078125 0q0.171875 -0.296875 0.421875 -0.53125q0.265625 -0.25 0.59375 -0.390625q0.328125 -0.15625 0.71875 -0.15625zm4.042145 4.765625q0.265625 0 0.5 -0.046875q0.25 -0.0625 0.5 -0.140625l0 1.1875q-0.25 0.109375 -0.640625 0.1875q-0.375 0.078125 -0.8125 0.078125q-0.515625 0 -0.9375 -0.171875q-0.40625 -0.171875 -0.65625 -0.59375q-0.234375 -0.421875 -0.234375 -1.171875l0 -2.796875l-0.75 0l0 -0.671875l0.875 -0.53125l0.453125 -1.234375l1.015625 0l0 1.25l1.625 0l0 1.1875l-1.625 0l0 2.796875q0 0.34375 0.1875 0.515625q0.1875 0.15625 0.5 0.15625zm3.766327 -4.65625l0 5.8125l-1.59375 0l0 -5.8125l1.59375 0zm-0.796875 -2.28125q0.359375 0 0.609375 0.171875q0.265625 0.15625 0.265625 0.59375q0 0.453125 -0.265625 0.625q-0.25 0.15625 -0.609375 0.15625q-0.359375 0 -0.609375 -0.15625q-0.25 -0.171875 -0.25 -0.625q0 -0.4375 0.25 -0.59375q0.25 -0.171875 0.609375 -0.171875zm5.767639 2.171875q0.921875 0 1.484375 0.515625q0.578125 0.5 0.578125 1.609375l0 3.796875l-1.59375 0l0 -3.390625q0 -0.625 -0.234375 -0.9375q-0.21875 -0.328125 -0.703125 -0.328125q-0.71875 0 -0.984375 0.5q-0.265625 0.484375 -0.265625 1.421875l0 2.734375l-1.59375 0l0 -5.8125l1.21875 0l0.21875 0.734375l0.078125 0q0.1875 -0.296875 0.46875 -0.484375q0.28125 -0.1875 0.609375 -0.265625q0.34375 -0.09375 0.71875 -0.09375zm5.3941956 8.484375q-1.21875 0 -1.859375 -0.421875q-0.640625 -0.421875 -0.640625 -1.1875q0 -0.53125 0.328125 -0.890625q0.328125 -0.34375 0.96875 -0.5q-0.25 -0.109375 -0.4375 -0.34375q-0.171875 -0.234375 -0.171875 -0.5q0 -0.328125 0.1875 -0.546875q0.1875 -0.234375 0.5625 -0.4375q-0.46875 -0.203125 -0.734375 -0.640625q-0.265625 -0.4375 -0.265625 -1.03125q0 -0.625 0.28125 -1.0625q0.28125 -0.453125 0.8125 -0.6875q0.53125 -0.234375 1.296875 -0.234375q0.15625 0 0.359375 0.015625q0.21875 0.015625 0.390625 0.046875q0.1875 0.03125 0.25 0.046875l2.03125 0l0 0.796875l-0.90625 0.234375q0.125 0.203125 0.1875 0.421875q0.0625 0.21875 0.0625 0.453125q0 0.9375 -0.65625 1.46875q-0.65625 0.515625 -1.8125 0.515625q-0.265625 -0.015625 -0.515625 -0.046875q-0.125 0.09375 -0.1875 0.203125q-0.0625 0.109375 -0.0625 0.21875q0 0.109375 0.09375 0.1875q0.109375 0.078125 0.296875 0.125q0.203125 0.03125 0.484375 0.03125l0.984375 0q0.96875 0 1.46875 0.421875q0.5 0.40625 0.5 1.203125q0 1.015625 -0.859375 1.578125q-0.84375 0.5625 -2.4375 0.5625zm0.078125 -1.03125q0.5625 0 0.96875 -0.109375q0.40625 -0.109375 0.625 -0.3125q0.21875 -0.1875 0.21875 -0.453125q0 -0.21875 -0.125 -0.359375q-0.125 -0.125 -0.390625 -0.171875q-0.25 -0.046875 -0.65625 -0.046875l-0.8125 0q-0.296875 0 -0.53125 0.09375q-0.234375 0.09375 -0.375 0.25q-0.125 0.171875 -0.125 0.40625q0 0.328125 0.3125 0.515625q0.3125 0.1875 0.890625 0.1875zm0.25 -4.421875q0.4375 0 0.640625 -0.265625q0.21875 -0.28125 0.21875 -0.75q0 -0.53125 -0.21875 -0.796875q-0.21875 -0.265625 -0.640625 -0.265625q-0.4375 0 -0.65625 0.265625q-0.21875 0.265625 -0.21875 0.796875q0 0.46875 0.21875 0.75q0.21875 0.265625 0.65625 0.265625z" fill-rule="nonzero"/><path fill="#353689" d="m114.63949 60.354332l0 0c0 -33.32843 26.587944 -60.34646 59.385826 -60.34646l0 0c15.750107 0 30.855118 6.357912 41.992126 17.675068c11.136993 11.317156 17.393707 26.666515 17.393707 42.67139l0 0c0 33.32843 -26.587936 60.34646 -59.385834 60.34646l0 0c-32.797882 0 -59.385826 -27.018028 -59.385826 -60.34646z" fill-rule="evenodd"/><path stroke="#ac945d" stroke-width="4.0" stroke-linejoin="round" stroke-linecap="butt" d="m114.63949 60.354332l0 0c0 -33.32843 26.587944 -60.34646 59.385826 -60.34646l0 0c15.750107 0 30.855118 6.357912 41.992126 17.675068c11.136993 11.317156 17.393707 26.666515 17.393707 42.67139l0 0c0 33.32843 -26.587936 60.34646 -59.385834 60.34646l0 0c-32.797882 0 -59.385826 -27.018028 -59.385826 -60.34646z" fill-rule="evenodd"/><path fill="#000000" fill-opacity="0.0" d="m114.63949 43.02588l118.77166 0l0 34.708664l-118.77166 0z" fill-rule="evenodd"/><path fill="#ffffff" d="m148.02237 64.220215l-0.546875 -1.8125038l-2.765625 0l-0.5625 1.8125038l-1.734375 0l2.6875 -7.640629l1.96875 0l2.703125 7.640629l-1.75 0zm-0.9375 -3.1562538l-0.546875 -1.78125q-0.046875 -0.171875 -0.140625 -0.453125q-0.078125 -0.28125 -0.171875 -0.5625q-0.078125 -0.296875 -0.140625 -0.5q-0.046875 0.203125 -0.140625 0.53125q-0.09375 0.3125 -0.171875 0.59375q-0.078125 0.28125 -0.125 0.390625l-0.546875 1.78125l1.984375 0zm7.570938 1.421875q0 0.59375 -0.28125 1.015625q-0.28125 0.40625 -0.828125 0.6250038q-0.546875 0.203125 -1.375 0.203125q-0.609375 0 -1.046875 -0.078125q-0.421875 -0.078125 -0.875 -0.2656288l0 -1.3125q0.484375 0.21875 1.015625 0.359375q0.546875 0.125 0.96875 0.125q0.453125 0 0.65625 -0.125q0.203125 -0.140625 0.203125 -0.375q0 -0.140625 -0.09375 -0.25q-0.078125 -0.125 -0.34375 -0.265625q-0.25 -0.15625 -0.828125 -0.390625q-0.546875 -0.234375 -0.90625 -0.46875q-0.34375 -0.234375 -0.515625 -0.546875q-0.15625 -0.328125 -0.15625 -0.8125q0 -0.8125 0.625 -1.21875q0.625 -0.40625 1.671875 -0.40625q0.546875 0 1.03125 0.109375q0.5 0.109375 1.015625 0.34375l-0.484375 1.140625q-0.421875 -0.1875 -0.8125 -0.296875q-0.375 -0.125 -0.78125 -0.125q-0.34375 0 -0.515625 0.09375q-0.171875 0.09375 -0.171875 0.28125q0 0.140625 0.078125 0.25q0.09375 0.109375 0.359375 0.25q0.265625 0.125 0.765625 0.34375q0.5 0.203125 0.859375 0.421875q0.375 0.21875 0.5625 0.546875q0.203125 0.3125 0.203125 0.828125zm5.2969055 0q0 0.59375 -0.28125 1.015625q-0.28125 0.40625 -0.828125 0.6250038q-0.546875 0.203125 -1.375 0.203125q-0.609375 0 -1.046875 -0.078125q-0.421875 -0.078125 -0.875 -0.2656288l0 -1.3125q0.484375 0.21875 1.015625 0.359375q0.546875 0.125 0.96875 0.125q0.453125 0 0.65625 -0.125q0.203125 -0.140625 0.203125 -0.375q0 -0.140625 -0.09375 -0.25q-0.078125 -0.125 -0.34375 -0.265625q-0.25 -0.15625 -0.828125 -0.390625q-0.546875 -0.234375 -0.90625 -0.46875q-0.34375 -0.234375 -0.515625 -0.546875q-0.15625 -0.328125 -0.15625 -0.8125q0 -0.8125 0.625 -1.21875q0.625 -0.40625 1.671875 -0.40625q0.546875 0 1.03125 0.109375q0.5 0.109375 1.015625 0.34375l-0.484375 1.140625q-0.421875 -0.1875 -0.8125 -0.296875q-0.375 -0.125 -0.78125 -0.125q-0.34375 0 -0.515625 0.09375q-0.171875 0.09375 -0.171875 0.28125q0 0.140625 0.078125 0.25q0.09375 0.109375 0.359375 0.25q0.265625 0.125 0.765625 0.34375q0.5 0.203125 0.859375 0.421875q0.375 0.21875 0.5625 0.546875q0.203125 0.3125 0.203125 0.828125zm3.6406555 -4.1875q0.796875 0 1.375 0.3125q0.59375 0.296875 0.90625 0.890625q0.328125 0.59375 0.328125 1.4375l0 0.765625l-3.75 0q0.015625 0.671875 0.390625 1.0625q0.375 0.375 1.046875 0.375q0.5625 0 1.015625 -0.109375q0.46875 -0.125 0.96875 -0.34375l0 1.21875q-0.4375 0.21875381 -0.90625 0.3125038q-0.46875 0.109375 -1.140625 0.109375q-0.875 0 -1.546875 -0.328125q-0.671875 -0.3281288 -1.0625 -0.9843788q-0.375 -0.65625 -0.375 -1.65625q0 -1.03125 0.34375 -1.703125q0.34375 -0.6875 0.953125 -1.015625q0.625 -0.34375 1.453125 -0.34375zm0 1.125q-0.453125 0 -0.765625 0.296875q-0.296875 0.296875 -0.34375 0.9375l2.21875 0q0 -0.359375 -0.125 -0.625q-0.125 -0.28125 -0.375 -0.4375q-0.234375 -0.171875 -0.609375 -0.171875zm7.952179 3.0625q0 0.59375 -0.28125 1.015625q-0.28125 0.40625 -0.828125 0.6250038q-0.546875 0.203125 -1.375 0.203125q-0.609375 0 -1.046875 -0.078125q-0.421875 -0.078125 -0.875 -0.2656288l0 -1.3125q0.484375 0.21875 1.015625 0.359375q0.546875 0.125 0.96875 0.125q0.453125 0 0.65625 -0.125q0.203125 -0.140625 0.203125 -0.375q0 -0.140625 -0.09375 -0.25q-0.078125 -0.125 -0.34375 -0.265625q-0.25 -0.15625 -0.828125 -0.390625q-0.546875 -0.234375 -0.90625 -0.46875q-0.34375 -0.234375 -0.515625 -0.546875q-0.15625 -0.328125 -0.15625 -0.8125q0 -0.8125 0.625 -1.21875q0.625 -0.40625 1.671875 -0.40625q0.546875 0 1.03125 0.109375q0.5 0.109375 1.015625 0.34375l-0.484375 1.140625q-0.421875 -0.1875 -0.8125 -0.296875q-0.375 -0.125 -0.78125 -0.125q-0.34375 0 -0.515625 0.09375q-0.171875 0.09375 -0.171875 0.28125q0 0.140625 0.078125 0.25q0.09375 0.109375 0.359375 0.25q0.265625 0.125 0.765625 0.34375q0.5 0.203125 0.859375 0.421875q0.375 0.21875 0.5625 0.546875q0.203125 0.3125 0.203125 0.828125zm5.2969055 0q0 0.59375 -0.28125 1.015625q-0.28125 0.40625 -0.828125 0.6250038q-0.546875 0.203125 -1.375 0.203125q-0.609375 0 -1.046875 -0.078125q-0.421875 -0.078125 -0.875 -0.2656288l0 -1.3125q0.484375 0.21875 1.015625 0.359375q0.546875 0.125 0.96875 0.125q0.453125 0 0.65625 -0.125q0.203125 -0.140625 0.203125 -0.375q0 -0.140625 -0.09375 -0.25q-0.078125 -0.125 -0.34375 -0.265625q-0.25 -0.15625 -0.828125 -0.390625q-0.546875 -0.234375 -0.90625 -0.46875q-0.34375 -0.234375 -0.515625 -0.546875q-0.15625 -0.328125 -0.15625 -0.8125q0 -0.8125 0.625 -1.21875q0.625 -0.40625 1.671875 -0.40625q0.546875 0 1.03125 0.109375q0.5 0.109375 1.015625 0.34375l-0.484375 1.140625q-0.421875 -0.1875 -0.8125 -0.296875q-0.375 -0.125 -0.78125 -0.125q-0.34375 0 -0.515625 0.09375q-0.171875 0.09375 -0.171875 0.28125q0 0.140625 0.078125 0.25q0.09375 0.109375 0.359375 0.25q0.265625 0.125 0.765625 0.34375q0.5 0.203125 0.859375 0.421875q0.375 0.21875 0.5625 0.546875q0.203125 0.3125 0.203125 0.828125zm8.0781555 -4.1875q0.984375 0 1.484375 0.515625q0.515625 0.5 0.515625 1.609375l0 3.7968788l-1.59375 0l0 -3.3906288q0 -0.625 -0.21875 -0.9375q-0.203125 -0.328125 -0.65625 -0.328125q-0.625 0 -0.890625 0.453125q-0.265625 0.453125 -0.265625 1.28125l0 2.9218788l-1.59375 0l0 -3.3906288q0 -0.421875 -0.09375 -0.703125q-0.09375 -0.28125 -0.296875 -0.421875q-0.1875 -0.140625 -0.484375 -0.140625q-0.4375 0 -0.6875 0.21875q-0.25 0.21875 -0.359375 0.65625q-0.109375 0.421875 -0.109375 1.046875l0 2.7343788l-1.59375 0l0 -5.812504l1.21875 0l0.21875 0.734375l0.078125 0q0.1875 -0.296875 0.453125 -0.484375q0.265625 -0.1875 0.578125 -0.265625q0.328125 -0.09375 0.65625 -0.09375q0.640625 0 1.078125 0.203125q0.453125 0.203125 0.703125 0.640625l0.140625 0q0.25 -0.4375 0.71875 -0.640625q0.484375 -0.203125 1.0 -0.203125zm6.02623 0q0.796875 0 1.375 0.3125q0.59375 0.296875 0.90625 0.890625q0.328125 0.59375 0.328125 1.4375l0 0.765625l-3.75 0q0.015625 0.671875 0.390625 1.0625q0.375 0.375 1.046875 0.375q0.5625 0 1.015625 -0.109375q0.46875 -0.125 0.96875 -0.34375l0 1.21875q-0.4375 0.21875381 -0.90625 0.3125038q-0.46875 0.109375 -1.140625 0.109375q-0.875 0 -1.546875 -0.328125q-0.671875 -0.3281288 -1.0625 -0.9843788q-0.375 -0.65625 -0.375 -1.65625q0 -1.03125 0.34375 -1.703125q0.34375 -0.6875 0.953125 -1.015625q0.625 -0.34375 1.453125 -0.34375zm0 1.125q-0.453125 0 -0.765625 0.296875q-0.296875 0.296875 -0.34375 0.9375l2.21875 0q0 -0.359375 -0.125 -0.625q-0.125 -0.28125 -0.375 -0.4375q-0.234375 -0.171875 -0.609375 -0.171875zm7.202179 -1.125q0.921875 0 1.484375 0.515625q0.578125 0.5 0.578125 1.609375l0 3.7968788l-1.59375 0l0 -3.3906288q0 -0.625 -0.234375 -0.9375q-0.21875 -0.328125 -0.703125 -0.328125q-0.71875 0 -0.984375 0.5q-0.265625 0.484375 -0.265625 1.421875l0 2.7343788l-1.59375 0l0 -5.812504l1.21875 0l0.21875 0.734375l0.078125 0q0.1875 -0.296875 0.46875 -0.484375q0.28125 -0.1875 0.609375 -0.265625q0.34375 -0.09375 0.71875 -0.09375zm6.1441956 4.765625q0.265625 0 0.5 -0.046875q0.25 -0.0625 0.5 -0.140625l0 1.1875038q-0.25 0.109375 -0.640625 0.1875q-0.375 0.078125 -0.8125 0.078125q-0.515625 0 -0.9375 -0.171875q-0.40625 -0.17187881 -0.65625 -0.5937538q-0.234375 -0.421875 -0.234375 -1.171875l0 -2.796875l-0.75 0l0 -0.671875l0.875 -0.53125l0.453125 -1.234375l1.015625 0l0 1.25l1.625 0l0 1.1875l-1.625 0l0 2.796875q0 0.34375 0.1875 0.515625q0.1875 0.15625 0.5 0.15625z" fill-rule="nonzero"/><path fill="#353689" d="m114.63816 479.64572l0 0c0 -33.32843 26.587944 -60.346466 59.385826 -60.346466l0 0c15.750107 0 30.855118 6.35791 41.992126 17.67508c11.136993 11.317139 17.393707 26.666504 17.393707 42.671387l0 0c0 33.3284 -26.587952 60.346466 -59.385834 60.346466l0 0c-32.797882 0 -59.385826 -27.018066 -59.385826 -60.346466z" fill-rule="evenodd"/><path stroke="#ac945d" stroke-width="4.0" stroke-linejoin="round" stroke-linecap="butt" d="m114.63816 479.64572l0 0c0 -33.32843 26.587944 -60.346466 59.385826 -60.346466l0 0c15.750107 0 30.855118 6.35791 41.992126 17.67508c11.136993 11.317139 17.393707 26.666504 17.393707 42.671387l0 0c0 33.3284 -26.587952 60.346466 -59.385834 60.346466l0 0c-32.797882 0 -59.385826 -27.018066 -59.385826 -60.346466z" fill-rule="evenodd"/><path fill="#000000" fill-opacity="0.0" d="m114.63816 462.31726l118.77166 0l0 34.70865l-118.77166 0z" fill-rule="evenodd"/><path fill="#ffffff" d="m164.99783 470.7366q-0.46875 0 -0.828125 0.1875q-0.34375 0.171875 -0.59375 0.515625q-0.234375 0.328125 -0.359375 0.8125q-0.125 0.484375 -0.125 1.078125q0 0.8125 0.1875 1.375q0.203125 0.5625 0.625 0.875q0.421875 0.296875 1.09375 0.296875q0.46875 0 0.921875 -0.109375q0.46875 -0.109375 1.015625 -0.296875l0 1.359375q-0.5 0.203125 -1.0 0.296875q-0.484375 0.09375 -1.09375 0.09375q-1.171875 0 -1.9375 -0.484375q-0.75 -0.5 -1.109375 -1.375q-0.359375 -0.875 -0.359375 -2.046875q0 -0.859375 0.234375 -1.578125q0.234375 -0.71875 0.6875 -1.234375q0.453125 -0.53125 1.109375 -0.8125q0.671875 -0.296875 1.53125 -0.296875q0.5625 0 1.125 0.140625q0.578125 0.140625 1.109375 0.390625l-0.53125 1.3125q-0.421875 -0.203125 -0.859375 -0.34375q-0.421875 -0.15625 -0.84375 -0.15625zm8.727737 3.453125q0 0.734375 -0.203125 1.296875q-0.1875 0.5625 -0.5625 0.953125q-0.375 0.375 -0.90625 0.578125q-0.515625 0.203125 -1.171875 0.203125q-0.609375 0 -1.125 -0.203125q-0.515625 -0.203125 -0.890625 -0.578125q-0.375 -0.390625 -0.578125 -0.953125q-0.203125 -0.5625 -0.203125 -1.296875q0 -0.96875 0.34375 -1.640625q0.34375 -0.671875 0.96875 -1.015625q0.640625 -0.34375 1.515625 -0.34375q0.8125 0 1.4375 0.34375q0.640625 0.34375 1.0 1.015625q0.375 0.671875 0.375 1.640625zm-4.03125 0q0 0.578125 0.125 0.96875q0.125 0.390625 0.390625 0.59375q0.265625 0.1875 0.6875 0.1875q0.421875 0 0.6875 -0.1875q0.265625 -0.203125 0.390625 -0.59375q0.125 -0.390625 0.125 -0.96875q0 -0.578125 -0.125 -0.953125q-0.125 -0.390625 -0.390625 -0.578125q-0.265625 -0.1875 -0.6875 -0.1875q-0.625 0 -0.921875 0.4375q-0.28125 0.421875 -0.28125 1.28125zm7.1758423 3.03125q-0.96875 0 -1.578125 -0.765625q-0.609375 -0.765625 -0.609375 -2.234375q0 -1.5 0.609375 -2.265625q0.625 -0.765625 1.625 -0.765625q0.40625 0 0.71875 0.109375q0.328125 0.109375 0.5625 0.3125q0.234375 0.1875 0.390625 0.421875l0.046875 0q-0.03125 -0.15625 -0.078125 -0.484375q-0.03125 -0.328125 -0.03125 -0.671875l0 -1.859375l1.59375 0l0 8.09375l-1.21875 0l-0.3125 -0.75l-0.0625 0q-0.15625 0.234375 -0.390625 0.4375q-0.21875 0.1875 -0.53125 0.3125q-0.3125 0.109375 -0.734375 0.109375zm0.5625 -1.265625q0.640625 0 0.90625 -0.390625q0.28125 -0.390625 0.296875 -1.171875l0 -0.171875q0 -0.84375 -0.265625 -1.296875q-0.265625 -0.453125 -0.96875 -0.453125q-0.53125 0 -0.828125 0.453125q-0.28125 0.453125 -0.28125 1.3125q0 0.84375 0.296875 1.28125q0.296875 0.4375 0.84375 0.4375zm6.743408 -4.765625q0.796875 0 1.375 0.3125q0.59375 0.296875 0.90625 0.890625q0.328125 0.59375 0.328125 1.4375l0 0.765625l-3.75 0q0.015625 0.671875 0.390625 1.0625q0.375 0.375 1.046875 0.375q0.5625 0 1.015625 -0.109375q0.46875 -0.125 0.96875 -0.34375l0 1.21875q-0.4375 0.21875 -0.90625 0.3125q-0.46875 0.109375 -1.140625 0.109375q-0.875 0 -1.546875 -0.328125q-0.671875 -0.328125 -1.0625 -0.984375q-0.375 -0.65625 -0.375 -1.65625q0 -1.03125 0.34375 -1.703125q0.34375 -0.6875 0.953125 -1.015625q0.625 -0.34375 1.453125 -0.34375zm0 1.125q-0.453125 0 -0.765625 0.296875q-0.296875 0.296875 -0.34375 0.9375l2.21875 0q0 -0.359375 -0.125 -0.625q-0.125 -0.28125 -0.375 -0.4375q-0.234375 -0.171875 -0.609375 -0.171875z" fill-rule="nonzero"/><path fill="#ffffff" d="m136.0701 489.9116l-1.609375 0l0 -6.265625l-2.0625 0l0 -1.34375l5.734375 0l0 1.34375l-2.0625 0l0 6.265625zm6.358551 -5.921875q0.125 0 0.28125 0.015625q0.15625 0 0.25 0.03125l-0.109375 1.484375q-0.078125 -0.03125 -0.234375 -0.03125q-0.140625 -0.015625 -0.234375 -0.015625q-0.3125 0 -0.609375 0.078125q-0.28125 0.078125 -0.515625 0.25q-0.21875 0.171875 -0.359375 0.453125q-0.125 0.28125 -0.125 0.703125l0 2.953125l-1.59375 0l0 -5.8125l1.203125 0l0.234375 0.96875l0.078125 0q0.171875 -0.296875 0.421875 -0.53125q0.265625 -0.25 0.59375 -0.390625q0.328125 -0.15625 0.71875 -0.15625zm3.9796448 -0.015625q1.171875 0 1.796875 0.515625q0.625 0.5 0.625 1.546875l0 3.875l-1.109375 0l-0.3125 -0.796875l-0.046875 0q-0.25 0.3125 -0.515625 0.515625q-0.25 0.203125 -0.59375 0.296875q-0.328125 0.09375 -0.8125 0.09375q-0.515625 0 -0.921875 -0.203125q-0.40625 -0.203125 -0.640625 -0.609375q-0.234375 -0.40625 -0.234375 -1.03125q0 -0.9375 0.640625 -1.375q0.65625 -0.4375 1.953125 -0.484375l1.015625 -0.03125l0 -0.25q0 -0.453125 -0.25 -0.671875q-0.234375 -0.21875 -0.65625 -0.21875q-0.421875 0 -0.828125 0.125q-0.40625 0.125 -0.8125 0.296875l-0.53125 -1.0625q0.46875 -0.25 1.046875 -0.390625q0.578125 -0.140625 1.1875 -0.140625zm0.84375 3.25l-0.625 0.015625q-0.765625 0.015625 -1.0625 0.28125q-0.296875 0.25 -0.296875 0.65625q0 0.375 0.203125 0.53125q0.21875 0.140625 0.5625 0.140625q0.515625 0 0.859375 -0.296875q0.359375 -0.296875 0.359375 -0.859375l0 -0.46875zm6.5145416 -3.234375q0.921875 0 1.484375 0.515625q0.578125 0.5 0.578125 1.609375l0 3.796875l-1.59375 0l0 -3.390625q0 -0.625 -0.234375 -0.9375q-0.21875 -0.328125 -0.703125 -0.328125q-0.71875 0 -0.984375 0.5q-0.265625 0.484375 -0.265625 1.421875l0 2.734375l-1.59375 0l0 -5.8125l1.21875 0l0.21875 0.734375l0.078125 0q0.1875 -0.296875 0.46875 -0.484375q0.28125 -0.1875 0.609375 -0.265625q0.34375 -0.09375 0.71875 -0.09375zm7.7535706 4.1875q0 0.59375 -0.28125 1.015625q-0.28125 0.40625 -0.828125 0.625q-0.546875 0.203125 -1.375 0.203125q-0.609375 0 -1.046875 -0.078125q-0.421875 -0.078125 -0.875 -0.265625l0 -1.3125q0.484375 0.21875 1.015625 0.359375q0.546875 0.125 0.96875 0.125q0.453125 0 0.65625 -0.125q0.203125 -0.140625 0.203125 -0.375q0 -0.140625 -0.09375 -0.25q-0.078125 -0.125 -0.34375 -0.265625q-0.25 -0.15625 -0.828125 -0.390625q-0.546875 -0.234375 -0.90625 -0.46875q-0.34375 -0.234375 -0.515625 -0.546875q-0.15625 -0.328125 -0.15625 -0.8125q0 -0.8125 0.625 -1.21875q0.625 -0.40625 1.671875 -0.40625q0.546875 0 1.03125 0.109375q0.5 0.109375 1.015625 0.34375l-0.484375 1.140625q-0.421875 -0.1875 -0.8125 -0.296875q-0.375 -0.125 -0.78125 -0.125q-0.34375 0 -0.515625 0.09375q-0.171875 0.09375 -0.171875 0.28125q0 0.140625 0.078125 0.25q0.09375 0.109375 0.359375 0.25q0.265625 0.125 0.765625 0.34375q0.5 0.203125 0.859375 0.421875q0.375 0.21875 0.5625 0.546875q0.203125 0.3125 0.203125 0.828125zm4.4531555 -2.890625l-1.375 0l0 4.625l-1.578125 0l0 -4.625l-0.875 0l0 -0.765625l0.875 -0.421875l0 -0.4375q0 -0.734375 0.25 -1.140625q0.25 -0.421875 0.703125 -0.59375q0.46875 -0.171875 1.09375 -0.171875q0.46875 0 0.84375 0.078125q0.375 0.078125 0.625 0.171875l-0.40625 1.15625q-0.1875 -0.046875 -0.40625 -0.09375q-0.203125 -0.046875 -0.484375 -0.046875q-0.328125 0 -0.484375 0.203125q-0.15625 0.1875 -0.15625 0.5l0 0.375l1.375 0l0 1.1875zm6.2043 1.703125q0 0.734375 -0.203125 1.296875q-0.1875 0.5625 -0.5625 0.953125q-0.375 0.375 -0.90625 0.578125q-0.515625 0.203125 -1.171875 0.203125q-0.609375 0 -1.125 -0.203125q-0.515625 -0.203125 -0.890625 -0.578125q-0.375 -0.390625 -0.578125 -0.953125q-0.203125 -0.5625 -0.203125 -1.296875q0 -0.96875 0.34375 -1.640625q0.34375 -0.671875 0.96875 -1.015625q0.640625 -0.34375 1.515625 -0.34375q0.8125 0 1.4375 0.34375q0.640625 0.34375 1.0 1.015625q0.375 0.671875 0.375 1.640625zm-4.03125 0q0 0.578125 0.125 0.96875q0.125 0.390625 0.390625 0.59375q0.265625 0.1875 0.6875 0.1875q0.421875 0 0.6875 -0.1875q0.265625 -0.203125 0.390625 -0.59375q0.125 -0.390625 0.125 -0.96875q0 -0.578125 -0.125 -0.953125q-0.125 -0.390625 -0.390625 -0.578125q-0.265625 -0.1875 -0.6875 -0.1875q-0.625 0 -0.921875 0.4375q-0.28125 0.421875 -0.28125 1.28125zm8.582092 -3.0q0.125 0 0.28125 0.015625q0.15625 0 0.25 0.03125l-0.109375 1.484375q-0.078125 -0.03125 -0.234375 -0.03125q-0.140625 -0.015625 -0.234375 -0.015625q-0.3125 0 -0.609375 0.078125q-0.28125 0.078125 -0.515625 0.25q-0.21875 0.171875 -0.359375 0.453125q-0.125 0.28125 -0.125 0.703125l0 2.953125l-1.59375 0l0 -5.8125l1.203125 0l0.234375 0.96875l0.078125 0q0.171875 -0.296875 0.421875 -0.53125q0.265625 -0.25 0.59375 -0.390625q0.328125 -0.15625 0.71875 -0.15625zm8.43277 0q0.984375 0 1.484375 0.515625q0.515625 0.5 0.515625 1.609375l0 3.796875l-1.59375 0l0 -3.390625q0 -0.625 -0.21875 -0.9375q-0.203125 -0.328125 -0.65625 -0.328125q-0.625 0 -0.890625 0.453125q-0.265625 0.453125 -0.265625 1.28125l0 2.921875l-1.59375 0l0 -3.390625q0 -0.421875 -0.09375 -0.703125q-0.09375 -0.28125 -0.296875 -0.421875q-0.1875 -0.140625 -0.484375 -0.140625q-0.4375 0 -0.6875 0.21875q-0.25 0.21875 -0.359375 0.65625q-0.109375 0.421875 -0.109375 1.046875l0 2.734375l-1.59375 0l0 -5.8125l1.21875 0l0.21875 0.734375l0.078125 0q0.1875 -0.296875 0.453125 -0.484375q0.265625 -0.1875 0.578125 -0.265625q0.328125 -0.09375 0.65625 -0.09375q0.640625 0 1.078125 0.203125q0.453125 0.203125 0.703125 0.640625l0.140625 0q0.25 -0.4375 0.71875 -0.640625q0.484375 -0.203125 1.0 -0.203125zm6.010605 -0.015625q1.171875 0 1.796875 0.515625q0.625 0.5 0.625 1.546875l0 3.875l-1.109375 0l-0.3125 -0.796875l-0.046875 0q-0.25 0.3125 -0.515625 0.515625q-0.25 0.203125 -0.59375 0.296875q-0.328125 0.09375 -0.8125 0.09375q-0.515625 0 -0.921875 -0.203125q-0.40625 -0.203125 -0.640625 -0.609375q-0.234375 -0.40625 -0.234375 -1.03125q0 -0.9375 0.640625 -1.375q0.65625 -0.4375 1.953125 -0.484375l1.015625 -0.03125l0 -0.25q0 -0.453125 -0.25 -0.671875q-0.234375 -0.21875 -0.65625 -0.21875q-0.421875 0 -0.828125 0.125q-0.40625 0.125 -0.8125 0.296875l-0.53125 -1.0625q0.46875 -0.25 1.046875 -0.390625q0.578125 -0.140625 1.1875 -0.140625zm0.84375 3.25l-0.625 0.015625q-0.765625 0.015625 -1.0625 0.28125q-0.296875 0.25 -0.296875 0.65625q0 0.375 0.203125 0.53125q0.21875 0.140625 0.5625 0.140625q0.515625 0 0.859375 -0.296875q0.359375 -0.296875 0.359375 -0.859375l0 -0.46875zm5.6551666 1.53125q0.265625 0 0.5 -0.046875q0.25 -0.0625 0.5 -0.140625l0 1.1875q-0.25 0.109375 -0.640625 0.1875q-0.375 0.078125 -0.8125 0.078125q-0.515625 0 -0.9375 -0.171875q-0.40625 -0.171875 -0.65625 -0.59375q-0.234375 -0.421875 -0.234375 -1.171875l0 -2.796875l-0.75 0l0 -0.671875l0.875 -0.53125l0.453125 -1.234375l1.015625 0l0 1.25l1.625 0l0 1.1875l-1.625 0l0 2.796875q0 0.34375 0.1875 0.515625q0.1875 0.15625 0.5 0.15625zm3.7663116 -4.65625l0 5.8125l-1.59375 0l0 -5.8125l1.59375 0zm-0.796875 -2.28125q0.359375 0 0.609375 0.171875q0.265625 0.15625 0.265625 0.59375q0 0.453125 -0.265625 0.625q-0.25 0.15625 -0.609375 0.15625q-0.359375 0 -0.609375 -0.15625q-0.25 -0.171875 -0.25 -0.625q0 -0.4375 0.25 -0.59375q0.25 -0.171875 0.609375 -0.171875zm7.7520294 5.171875q0 0.734375 -0.203125 1.296875q-0.1875 0.5625 -0.5625 0.953125q-0.375 0.375 -0.90625 0.578125q-0.515625 0.203125 -1.171875 0.203125q-0.609375 0 -1.125 -0.203125q-0.515625 -0.203125 -0.890625 -0.578125q-0.375 -0.390625 -0.578125 -0.953125q-0.203125 -0.5625 -0.203125 -1.296875q0 -0.96875 0.34375 -1.640625q0.34375 -0.671875 0.96875 -1.015625q0.640625 -0.34375 1.515625 -0.34375q0.8125 0 1.4375 0.34375q0.640625 0.34375 1.0 1.015625q0.375 0.671875 0.375 1.640625zm-4.03125 0q0 0.578125 0.125 0.96875q0.125 0.390625 0.390625 0.59375q0.265625 0.1875 0.6875 0.1875q0.421875 0 0.6875 -0.1875q0.265625 -0.203125 0.390625 -0.59375q0.125 -0.390625 0.125 -0.96875q0 -0.578125 -0.125 -0.953125q-0.125 -0.390625 -0.390625 -0.578125q-0.265625 -0.1875 -0.6875 -0.1875q-0.625 0 -0.921875 0.4375q-0.28125 0.421875 -0.28125 1.28125zm8.644592 -3.0q0.921875 0 1.484375 0.515625q0.578125 0.5 0.578125 1.609375l0 3.796875l-1.59375 0l0 -3.390625q0 -0.625 -0.234375 -0.9375q-0.21875 -0.328125 -0.703125 -0.328125q-0.71875 0 -0.984375 0.5q-0.265625 0.484375 -0.265625 1.421875l0 2.734375l-1.59375 0l0 -5.8125l1.21875 0l0.21875 0.734375l0.078125 0q0.1875 -0.296875 0.46875 -0.484375q0.28125 -0.1875 0.609375 -0.265625q0.34375 -0.09375 0.71875 -0.09375z" fill-rule="nonzero"/><path fill="#353689" d="m-0.015906824 272.92477l0 0c0 -33.32843 26.58794 -60.34645 59.385826 -60.34645l0 0c15.750099 0 30.855118 6.35791 41.99212 17.675064c11.137009 11.317154 17.393707 26.666504 17.393707 42.671387l0 0c0 33.32843 -26.587936 60.346466 -59.385826 60.346466l0 0c-32.797886 0 -59.385826 -27.018036 -59.385826 -60.346466z" fill-rule="evenodd"/><path stroke="#ac945d" stroke-width="4.0" stroke-linejoin="round" stroke-linecap="butt" d="m-0.015906824 272.92477l0 0c0 -33.32843 26.58794 -60.34645 59.385826 -60.34645l0 0c15.750099 0 30.855118 6.35791 41.99212 17.675064c11.137009 11.317154 17.393707 26.666504 17.393707 42.671387l0 0c0 33.32843 -26.587936 60.346466 -59.385826 60.346466l0 0c-32.797886 0 -59.385826 -27.018036 -59.385826 -60.346466z" fill-rule="evenodd"/><path fill="#000000" fill-opacity="0.0" d="m-0.015906824 255.59633l118.77165 0l0 34.708664l-118.77165 0z" fill-rule="evenodd"/><path fill="#ffffff" d="m39.429184 269.18127q1.46875 0 2.140625 0.640625q0.6875 0.625 0.6875 1.734375q0 0.5 -0.15625 0.953125q-0.15625 0.453125 -0.5 0.8125q-0.328125 0.359375 -0.90625 0.5625q-0.5625 0.203125 -1.390625 0.203125l-0.6875 0l0 2.703125l-1.625 0l0 -7.609375l2.4375 0zm-0.09375 1.328125l-0.71875 0l0 2.25l0.515625 0q0.453125 0 0.78125 -0.109375q0.34375 -0.125 0.515625 -0.375q0.1875 -0.265625 0.1875 -0.65625q0 -0.5625 -0.3125 -0.828125q-0.3125 -0.28125 -0.96875 -0.28125zm5.8163757 6.28125l-1.59375 0l0 -8.09375l1.59375 0l0 8.09375zm4.0489044 -5.9375q1.171875 0 1.796875 0.515625q0.625 0.5 0.625 1.546875l0 3.875l-1.109375 0l-0.3125 -0.796875l-0.046875 0q-0.25 0.3125 -0.515625 0.515625q-0.25 0.203125 -0.59375 0.296875q-0.328125 0.09375 -0.8125 0.09375q-0.515625 0 -0.921875 -0.203125q-0.40625 -0.203125 -0.640625 -0.609375q-0.234375 -0.40625 -0.234375 -1.03125q0 -0.9375 0.640625 -1.375q0.65625 -0.4375 1.953125 -0.484375l1.015625 -0.03125l0 -0.25q0 -0.453125 -0.25 -0.671875q-0.234375 -0.21875 -0.65625 -0.21875q-0.421875 0 -0.828125 0.125q-0.40625 0.125 -0.8125 0.296875l-0.53125 -1.0625q0.46875 -0.25 1.046875 -0.390625q0.578125 -0.140625 1.1875 -0.140625zm0.84375 3.25l-0.625 0.015625q-0.765625 0.015625 -1.0625 0.28125q-0.296875 0.25 -0.296875 0.65625q0 0.375 0.203125 0.53125q0.21875 0.140625 0.5625 0.140625q0.515625 0 0.859375 -0.296875q0.359375 -0.296875 0.359375 -0.859375l0 -0.46875zm6.5145416 -3.234375q0.921875 0 1.484375 0.515625q0.578125 0.5 0.578125 1.609375l0 3.796875l-1.59375 0l0 -3.390625q0 -0.625 -0.234375 -0.9375q-0.21875 -0.328125 -0.703125 -0.328125q-0.71875 0 -0.984375 0.5q-0.265625 0.484375 -0.265625 1.421875l0 2.734375l-1.59375 0l0 -5.8125l1.21875 0l0.21875 0.734375l0.078125 0q0.1875 -0.296875 0.46875 -0.484375q0.28125 -0.1875 0.609375 -0.265625q0.34375 -0.09375 0.71875 -0.09375zm7.0035706 0q0.921875 0 1.484375 0.515625q0.578125 0.5 0.578125 1.609375l0 3.796875l-1.59375 0l0 -3.390625q0 -0.625 -0.234375 -0.9375q-0.21875 -0.328125 -0.703125 -0.328125q-0.71875 0 -0.984375 0.5q-0.265625 0.484375 -0.265625 1.421875l0 2.734375l-1.59375 0l0 -5.8125l1.21875 0l0.21875 0.734375l0.078125 0q0.1875 -0.296875 0.46875 -0.484375q0.28125 -0.1875 0.609375 -0.265625q0.34375 -0.09375 0.71875 -0.09375zm5.2848206 0.109375l0 5.8125l-1.59375 0l0 -5.8125l1.59375 0zm-0.796875 -2.28125q0.359375 0 0.609375 0.171875q0.265625 0.15625 0.265625 0.59375q0 0.453125 -0.265625 0.625q-0.25 0.15625 -0.609375 0.15625q-0.359375 0 -0.609375 -0.15625q-0.25 -0.171875 -0.25 -0.625q0 -0.4375 0.25 -0.59375q0.25 -0.171875 0.609375 -0.171875zm5.7676544 2.171875q0.921875 0 1.484375 0.515625q0.578125 0.5 0.578125 1.609375l0 3.796875l-1.59375 0l0 -3.390625q0 -0.625 -0.234375 -0.9375q-0.21875 -0.328125 -0.703125 -0.328125q-0.71875 0 -0.984375 0.5q-0.265625 0.484375 -0.265625 1.421875l0 2.734375l-1.59375 0l0 -5.8125l1.21875 0l0.21875 0.734375l0.078125 0q0.1875 -0.296875 0.46875 -0.484375q0.28125 -0.1875 0.609375 -0.265625q0.34375 -0.09375 0.71875 -0.09375zm5.3941956 8.484375q-1.21875 0 -1.859375 -0.421875q-0.640625 -0.421875 -0.640625 -1.1875q0 -0.53125 0.328125 -0.890625q0.328125 -0.34375 0.96875 -0.5q-0.25 -0.109375 -0.4375 -0.34375q-0.171875 -0.234375 -0.171875 -0.5q0 -0.328125 0.1875 -0.546875q0.1875 -0.234375 0.5625 -0.4375q-0.46875 -0.203125 -0.734375 -0.640625q-0.265625 -0.4375 -0.265625 -1.03125q0 -0.625 0.28125 -1.0625q0.28125 -0.453125 0.8125 -0.6875q0.53125 -0.234375 1.296875 -0.234375q0.15625 0 0.359375 0.015625q0.21875 0.015625 0.390625 0.046875q0.1875 0.03125 0.25 0.046875l2.03125 0l0 0.796875l-0.90625 0.234375q0.125 0.203125 0.1875 0.421875q0.0625 0.21875 0.0625 0.453125q0 0.9375 -0.65625 1.46875q-0.65625 0.515625 -1.8125 0.515625q-0.265625 -0.015625 -0.515625 -0.046875q-0.125 0.09375 -0.1875 0.203125q-0.0625 0.109375 -0.0625 0.21875q0 0.109375 0.09375 0.1875q0.109375 0.078125 0.296875 0.125q0.203125 0.03125 0.484375 0.03125l0.984375 0q0.96875 0 1.46875 0.421875q0.5 0.40625 0.5 1.203125q0 1.015625 -0.859375 1.578125q-0.84375 0.5625 -2.4375 0.5625zm0.078125 -1.03125q0.5625 0 0.96875 -0.109375q0.40625 -0.109375 0.625 -0.3125q0.21875 -0.1875 0.21875 -0.453125q0 -0.21875 -0.125 -0.359375q-0.125 -0.125 -0.390625 -0.171875q-0.25 -0.046875 -0.65625 -0.046875l-0.8125 0q-0.296875 0 -0.53125 0.09375q-0.234375 0.09375 -0.375 0.25q-0.125 0.171875 -0.125 0.40625q0 0.328125 0.3125 0.515625q0.3125 0.1875 0.890625 0.1875zm0.25 -4.421875q0.4375 0 0.640625 -0.265625q0.21875 -0.28125 0.21875 -0.75q0 -0.53125 -0.21875 -0.796875q-0.21875 -0.265625 -0.640625 -0.265625q-0.4375 0 -0.65625 0.265625q-0.21875 0.265625 -0.21875 0.796875q0 0.46875 0.21875 0.75q0.21875 0.265625 0.65625 0.265625z" fill-rule="nonzero"/><path fill="#353689" d="m402.73953 60.354332l0 0c0 -33.32843 26.587952 -60.34646 59.385834 -60.34646l0 0c15.750092 0 30.855103 6.357912 41.992126 17.675068c11.136963 11.317156 17.393677 26.666515 17.393677 42.67139l0 0c0 33.32843 -26.587921 60.34646 -59.385803 60.34646l0 0c-32.797882 0 -59.385834 -27.018028 -59.385834 -60.34646z" fill-rule="evenodd"/><path stroke="#ac945d" stroke-width="4.0" stroke-linejoin="round" stroke-linecap="butt" d="m402.73953 60.354332l0 0c0 -33.32843 26.587952 -60.34646 59.385834 -60.34646l0 0c15.750092 0 30.855103 6.357912 41.992126 17.675068c11.136963 11.317156 17.393677 26.666515 17.393677 42.67139l0 0c0 33.32843 -26.587921 60.34646 -59.385803 60.34646l0 0c-32.797882 0 -59.385834 -27.018028 -59.385834 -60.34646z" fill-rule="evenodd"/><path fill="#000000" fill-opacity="0.0" d="m402.73953 43.02588l118.77164 0l0 34.708664l-118.77164 0z" fill-rule="evenodd"/><path fill="#ffffff" d="m445.75882 64.220215l-0.546875 -1.8125038l-2.765625 0l-0.5625 1.8125038l-1.734375 0l2.6875 -7.640629l1.96875 0l2.703125 7.640629l-1.75 0zm-0.9375 -3.1562538l-0.546875 -1.78125q-0.046875 -0.171875 -0.140625 -0.453125q-0.078125 -0.28125 -0.171875 -0.5625q-0.078125 -0.296875 -0.140625 -0.5q-0.046875 0.203125 -0.140625 0.53125q-0.09375 0.3125 -0.171875 0.59375q-0.078125 0.28125 -0.125 0.390625l-0.546875 1.78125l1.984375 0zm6.820923 -2.765625q0.921875 0 1.484375 0.515625q0.578125 0.5 0.578125 1.609375l0 3.7968788l-1.59375 0l0 -3.3906288q0 -0.625 -0.234375 -0.9375q-0.21875 -0.328125 -0.703125 -0.328125q-0.71875 0 -0.984375 0.5q-0.265625 0.484375 -0.265625 1.421875l0 2.7343788l-1.59375 0l0 -5.812504l1.21875 0l0.21875 0.734375l0.078125 0q0.1875 -0.296875 0.46875 -0.484375q0.28125 -0.1875 0.609375 -0.265625q0.34375 -0.09375 0.71875 -0.09375zm6.0816956 -0.015625q1.171875 0 1.796875 0.515625q0.625 0.5 0.625 1.546875l0 3.8750038l-1.109375 0l-0.3125 -0.7968788l-0.046875 0q-0.25 0.3125 -0.515625 0.515625q-0.25 0.20312881 -0.59375 0.2968788q-0.328125 0.09375 -0.8125 0.09375q-0.515625 0 -0.921875 -0.203125q-0.40625 -0.20312881 -0.640625 -0.6093788q-0.234375 -0.40625 -0.234375 -1.03125q0 -0.9375 0.640625 -1.375q0.65625 -0.4375 1.953125 -0.484375l1.015625 -0.03125l0 -0.25q0 -0.453125 -0.25 -0.671875q-0.234375 -0.21875 -0.65625 -0.21875q-0.421875 0 -0.828125 0.125q-0.40625 0.125 -0.8125 0.296875l-0.53125 -1.0625q0.46875 -0.25 1.046875 -0.390625q0.578125 -0.140625 1.1875 -0.140625zm0.84375 3.25l-0.625 0.015625q-0.765625 0.015625 -1.0625 0.28125q-0.296875 0.25 -0.296875 0.65625q0 0.375 0.203125 0.53125q0.21875 0.140625 0.5625 0.140625q0.515625 0 0.859375 -0.296875q0.359375 -0.296875 0.359375 -0.859375l0 -0.46875zm4.795807 2.6875038l-1.59375 0l0 -8.093754l1.59375 0l0 8.093754zm0.83013916 -5.812504l1.734375 0l1.09375 3.265625q0.0625 0.15625 0.09375 0.328125q0.03125 0.15625 0.0625 0.328125q0.03125 0.171875 0.046875 0.359375l0.03125 0q0.03125 -0.28125 0.078125 -0.53125q0.0625 -0.25 0.140625 -0.484375l1.078125 -3.265625l1.703125 0l-2.46875 6.562504q-0.21875 0.59375 -0.578125 1.0q-0.359375 0.40625 -0.828125 0.609375q-0.453125 0.203125 -1.015625 0.203125q-0.265625 0 -0.46875 -0.03125q-0.203125 -0.03125 -0.34375 -0.0625l0 -1.25q0.109375 0.015625 0.28125 0.03125q0.171875 0.03125 0.34375 0.03125q0.34375 0 0.578125 -0.140625q0.234375 -0.140625 0.390625 -0.375q0.171875 -0.234375 0.265625 -0.515625l0.09375 -0.296875l-2.3125 -5.765629zm10.952423 4.078125q0 0.59375 -0.28125 1.015625q-0.28125 0.40625 -0.828125 0.6250038q-0.546875 0.203125 -1.375 0.203125q-0.609375 0 -1.046875 -0.078125q-0.421875 -0.078125 -0.875 -0.2656288l0 -1.3125q0.484375 0.21875 1.015625 0.359375q0.546875 0.125 0.96875 0.125q0.453125 0 0.65625 -0.125q0.203125 -0.140625 0.203125 -0.375q0 -0.140625 -0.09375 -0.25q-0.078125 -0.125 -0.34375 -0.265625q-0.25 -0.15625 -0.828125 -0.390625q-0.546875 -0.234375 -0.90625 -0.46875q-0.34375 -0.234375 -0.515625 -0.546875q-0.15625 -0.328125 -0.15625 -0.8125q0 -0.8125 0.625 -1.21875q0.625 -0.40625 1.671875 -0.40625q0.546875 0 1.03125 0.109375q0.5 0.109375 1.015625 0.34375l-0.484375 1.140625q-0.421875 -0.1875 -0.8125 -0.296875q-0.375 -0.125 -0.78125 -0.125q-0.34375 0 -0.515625 0.09375q-0.171875 0.09375 -0.171875 0.28125q0 0.140625 0.078125 0.25q0.09375 0.109375 0.359375 0.25q0.265625 0.125 0.765625 0.34375q0.5 0.203125 0.859375 0.421875q0.375 0.21875 0.5625 0.546875q0.203125 0.3125 0.203125 0.828125zm2.8281555 -4.078125l0 5.812504l-1.59375 0l0 -5.812504l1.59375 0zm-0.796875 -2.28125q0.359375 0 0.609375 0.171875q0.265625 0.15625 0.265625 0.59375q0 0.453125 -0.265625 0.625q-0.25 0.15625 -0.609375 0.15625q-0.359375 0 -0.609375 -0.15625q-0.25 -0.171875 -0.25 -0.625q0 -0.4375 0.25 -0.59375q0.25 -0.171875 0.609375 -0.171875zm6.517639 6.359375q0 0.59375 -0.28125 1.015625q-0.28125 0.40625 -0.828125 0.6250038q-0.546875 0.203125 -1.375 0.203125q-0.609375 0 -1.046875 -0.078125q-0.421875 -0.078125 -0.875 -0.2656288l0 -1.3125q0.484375 0.21875 1.015625 0.359375q0.546875 0.125 0.96875 0.125q0.453125 0 0.65625 -0.125q0.203125 -0.140625 0.203125 -0.375q0 -0.140625 -0.09375 -0.25q-0.078125 -0.125 -0.34375 -0.265625q-0.25 -0.15625 -0.828125 -0.390625q-0.546875 -0.234375 -0.90625 -0.46875q-0.34375 -0.234375 -0.515625 -0.546875q-0.15625 -0.328125 -0.15625 -0.8125q0 -0.8125 0.625 -1.21875q0.625 -0.40625 1.671875 -0.40625q0.546875 0 1.03125 0.109375q0.5 0.109375 1.015625 0.34375l-0.484375 1.140625q-0.421875 -0.1875 -0.8125 -0.296875q-0.375 -0.125 -0.78125 -0.125q-0.34375 0 -0.515625 0.09375q-0.171875 0.09375 -0.171875 0.28125q0 0.140625 0.078125 0.25q0.09375 0.109375 0.359375 0.25q0.265625 0.125 0.765625 0.34375q0.5 0.203125 0.859375 0.421875q0.375 0.21875 0.5625 0.546875q0.203125 0.3125 0.203125 0.828125z" fill-rule="nonzero"/></g></svg>