<svg width="265" height="265" viewBox="0 0 265 265" fill="none" xmlns="http://www.w3.org/2000/svg">
<path fill-rule="evenodd" clip-rule="evenodd" d="M190.291 2.05548H74.5506C72.4342 2.05548 70.7185 3.77117 70.7185 5.88758V121.628C70.7185 123.744 72.4342 125.46 74.5506 125.46H190.291C192.407 125.46 194.123 123.744 194.123 121.628V5.88757C194.123 3.77117 192.407 2.05548 190.291 2.05548ZM196.176 5.88757C196.176 2.63732 193.541 0.00247192 190.291 0.00247192H74.5506C71.3003 0.00247192 68.6655 2.63732 68.6655 5.88758V121.628C68.6655 124.878 71.3003 127.513 74.5506 127.513H190.291C193.541 127.513 196.176 124.878 196.176 121.628V5.88757ZM147.144 19.6194C149.852 19.6194 152.048 21.8151 152.048 24.5236C152.048 27.2322 149.852 29.4279 147.144 29.4279H117.718C115.01 29.4279 112.814 27.2322 112.814 24.5236C112.814 21.8151 115.01 19.6194 117.718 19.6194H147.144ZM143.217 139.375H258.957C261.074 139.375 262.79 141.09 262.79 143.207V258.947C262.79 261.064 261.074 262.779 258.957 262.779H143.217C141.101 262.779 139.385 261.064 139.385 258.947V143.207C139.385 141.09 141.101 139.375 143.217 139.375ZM258.957 137.322C262.208 137.322 264.843 139.957 264.843 143.207V258.947C264.843 262.198 262.208 264.832 258.957 264.832H143.217C139.967 264.832 137.332 262.198 137.332 258.947V143.207C137.332 139.957 139.967 137.322 143.217 137.322H258.957ZM215.81 156.939C218.519 156.939 220.714 159.134 220.714 161.843C220.714 164.552 218.519 166.747 215.81 166.747H186.385C183.676 166.747 181.48 164.552 181.48 161.843C181.48 159.134 183.676 156.939 186.385 156.939H215.81ZM5.8875 139.375H121.628C123.744 139.375 125.46 141.09 125.46 143.207V258.947C125.46 261.063 123.744 262.779 121.628 262.779H5.8875C3.77107 262.779 2.0554 261.063 2.0554 258.947V143.207C2.0554 141.09 3.77107 139.375 5.8875 139.375ZM121.628 137.322C124.878 137.322 127.513 139.956 127.513 143.207V258.947C127.513 262.197 124.878 264.832 121.628 264.832H5.8875C2.63722 264.832 0.00236328 262.197 0.00236328 258.947V143.207C0.00236328 139.956 2.63722 137.322 5.8875 137.322H121.628ZM78.4805 156.938C81.1891 156.938 83.3848 159.134 83.3848 161.843C83.3848 164.551 81.1891 166.747 78.4805 166.747H49.055C46.3464 166.747 44.1507 164.551 44.1507 161.843C44.1507 159.134 46.3464 156.938 49.055 156.938H78.4805Z" fill="url(#paint0_linear_143_137)"/>
<g filter="url(#filter0_f_143_137)">
<rect width="25.6626" height="25.6626" rx="8.21205" transform="matrix(-1 0 0 1 207.178 68.0013)" fill="#343983"/>
</g>
<rect width="25.6626" height="25.6626" rx="8.21205" transform="matrix(-1 0 0 1 207.178 68.0013)" fill="white"/>
<defs>
<filter id="filter0_f_143_137" x="148.667" y="35.1531" width="91.359" height="91.359" filterUnits="userSpaceOnUse" color-interpolation-filters="sRGB">
<feFlood flood-opacity="0" result="BackgroundImageFix"/>
<feBlend mode="normal" in="SourceGraphic" in2="BackgroundImageFix" result="shape"/>
<feGaussianBlur stdDeviation="16.4241" result="effect1_foregroundBlur_143_137"/>
</filter>
<linearGradient id="paint0_linear_143_137" x1="286.913" y1="64.6726" x2="0.00283369" y2="215.058" gradientUnits="userSpaceOnUse">
<stop offset="0.24" stop-color="#AC945D"/>
<stop offset="0.48" stop-color="white"/>
<stop offset="0.85" stop-color="white"/>
</linearGradient>
</defs>
</svg>
