<svg width="310" height="265" viewBox="0 0 310 265" fill="none" xmlns="http://www.w3.org/2000/svg">
<path fill-rule="evenodd" clip-rule="evenodd" d="M74.5512 2.05305H190.294C192.41 2.05305 194.126 3.76877 194.126 5.88521V121.628C194.126 123.744 192.41 125.46 190.294 125.46H74.5512C72.4348 125.46 70.7191 123.744 70.7191 121.628V5.88521C70.7191 3.76877 72.4348 2.05305 74.5512 2.05305ZM68.666 5.88521C68.666 2.6349 71.3009 0 74.5512 0H190.294C193.544 0 196.179 2.6349 196.179 5.88521V121.628C196.179 124.878 193.544 127.513 190.294 127.513H74.5512C71.3009 127.513 68.666 124.878 68.666 121.628V5.88521ZM117.699 19.6173C114.991 19.6173 112.795 21.813 112.795 24.5216C112.795 27.2302 114.991 29.426 117.699 29.426H147.126C149.834 29.426 152.03 27.2302 152.03 24.5216C152.03 21.813 149.834 19.6173 147.126 19.6173H117.699ZM121.628 139.375H5.88521C3.76877 139.375 2.05305 141.091 2.05305 143.207V258.95C2.05305 261.066 3.76877 262.782 5.88521 262.782H121.628C123.744 262.782 125.46 261.066 125.46 258.95V143.207C125.46 141.091 123.744 139.375 121.628 139.375ZM5.88521 137.322C2.6349 137.322 0 139.957 0 143.207V258.95C0 262.2 2.6349 264.835 5.88521 264.835H121.628C124.878 264.835 127.513 262.2 127.513 258.95V143.207C127.513 139.957 124.878 137.322 121.628 137.322H5.88521ZM49.0334 156.939C46.3248 156.939 44.1291 159.135 44.1291 161.844C44.1291 164.552 46.3248 166.748 49.0334 166.748H78.4595C81.1681 166.748 83.3638 164.552 83.3638 161.844C83.3638 159.135 81.1681 156.939 78.4595 156.939H49.0334ZM258.96 139.363H143.217C141.101 139.363 139.385 141.079 139.385 143.195V258.938C139.385 261.054 141.101 262.77 143.217 262.77H258.96C261.076 262.77 262.792 261.054 262.792 258.938V143.195C262.792 141.079 261.076 139.363 258.96 139.363ZM143.217 137.31C139.967 137.31 137.332 139.945 137.332 143.195V258.938C137.332 262.188 139.967 264.823 143.217 264.823H258.96C262.21 264.823 264.845 262.188 264.845 258.938V143.195C264.845 139.945 262.21 137.31 258.96 137.31H143.217ZM186.365 156.939C183.657 156.939 181.461 159.135 181.461 161.843C181.461 164.552 183.657 166.748 186.365 166.748H215.792C218.5 166.748 220.696 164.552 220.696 161.843C220.696 159.135 218.5 156.939 215.792 156.939H186.365Z" fill="url(#paint0_linear_42_3497)"/>
<g filter="url(#filter0_f_42_3497)">
<rect x="250.666" y="205.31" width="25.6631" height="25.6631" rx="8.2122" fill="#343983"/>
</g>
<rect x="250.666" y="205.31" width="25.6631" height="25.6631" rx="8.2122" fill="white"/>
<defs>
<filter id="filter0_f_42_3497" x="217.817" y="172.461" width="91.3608" height="91.3608" filterUnits="userSpaceOnUse" color-interpolation-filters="sRGB">
<feFlood flood-opacity="0" result="BackgroundImageFix"/>
<feBlend mode="normal" in="SourceGraphic" in2="BackgroundImageFix" result="shape"/>
<feGaussianBlur stdDeviation="16.4244" result="effect1_foregroundBlur_42_3497"/>
</filter>
<linearGradient id="paint0_linear_42_3497" x1="-22.0705" y1="64.6713" x2="264.845" y2="215.059" gradientUnits="userSpaceOnUse">
<stop offset="0.305" stop-color="white"/>
<stop offset="0.5" stop-color="white"/>
<stop offset="0.76" stop-color="#AC945D"/>
</linearGradient>
</defs>
</svg>
