<svg width="265" height="265" viewBox="0 0 265 265" fill="none" xmlns="http://www.w3.org/2000/svg">
<path fill-rule="evenodd" clip-rule="evenodd" d="M74.5532 2.05305H190.296C192.412 2.05305 194.128 3.76877 194.128 5.88521V121.628C194.128 123.744 192.412 125.46 190.296 125.46H74.5532C72.4367 125.46 70.721 123.744 70.721 121.628V5.88521C70.721 3.76877 72.4367 2.05305 74.5532 2.05305ZM68.668 5.88521C68.668 2.6349 71.3029 0 74.5532 0H190.296C193.546 0 196.181 2.6349 196.181 5.88521V121.628C196.181 124.878 193.546 127.513 190.296 127.513H74.5532C71.3029 127.513 68.668 124.878 68.668 121.628V5.88521ZM117.701 19.6173C114.993 19.6173 112.797 21.8131 112.797 24.5217C112.797 27.2302 114.993 29.426 117.701 29.426H147.127C149.836 29.426 152.032 27.2302 152.032 24.5217C152.032 21.8131 149.836 19.6173 147.127 19.6173H117.701ZM121.628 139.375H5.88521C3.76877 139.375 2.05305 141.091 2.05305 143.207V258.95C2.05305 261.066 3.76877 262.782 5.88521 262.782H121.628C123.744 262.782 125.46 261.066 125.46 258.95V143.207C125.46 141.091 123.744 139.375 121.628 139.375ZM5.88521 137.322C2.6349 137.322 0 139.957 0 143.207V258.95C0 262.2 2.6349 264.835 5.88521 264.835H121.628C124.878 264.835 127.513 262.2 127.513 258.95V143.207C127.513 139.957 124.878 137.322 121.628 137.322H5.88521ZM49.0334 156.939C46.3248 156.939 44.1291 159.135 44.1291 161.844C44.1291 164.552 46.3248 166.748 49.0334 166.748H78.4595C81.1681 166.748 83.3639 164.552 83.3639 161.844C83.3639 159.135 81.1681 156.939 78.4595 156.939H49.0334ZM258.96 139.375H143.217C141.101 139.375 139.385 141.09 139.385 143.207V258.949C139.385 261.066 141.101 262.782 143.217 262.782H258.96C261.076 262.782 262.792 261.066 262.792 258.949V143.207C262.792 141.09 261.076 139.375 258.96 139.375ZM143.217 137.322C139.967 137.322 137.332 139.957 137.332 143.207V258.949C137.332 262.2 139.967 264.835 143.217 264.835H258.96C262.21 264.835 264.845 262.2 264.845 258.949V143.207C264.845 139.957 262.21 137.322 258.96 137.322H143.217ZM186.365 156.939C183.657 156.939 181.461 159.135 181.461 161.843C181.461 164.552 183.657 166.748 186.365 166.748H215.792C218.5 166.748 220.696 164.552 220.696 161.843C220.696 159.135 218.5 156.939 215.792 156.939H186.365Z" fill="url(#paint0_linear_42_3512)"/>
<g filter="url(#filter0_f_42_3512)">
<rect x="57.666" y="68" width="25.6631" height="25.6631" rx="8.2122" fill="#343983"/>
</g>
<rect x="57.666" y="68" width="25.6631" height="25.6631" rx="8.2122" fill="white"/>
<defs>
<filter id="filter0_f_42_3512" x="24.8172" y="35.1512" width="91.3607" height="91.3608" filterUnits="userSpaceOnUse" color-interpolation-filters="sRGB">
<feFlood flood-opacity="0" result="BackgroundImageFix"/>
<feBlend mode="normal" in="SourceGraphic" in2="BackgroundImageFix" result="shape"/>
<feGaussianBlur stdDeviation="16.4244" result="effect1_foregroundBlur_42_3512"/>
</filter>
<linearGradient id="paint0_linear_42_3512" x1="-22.0705" y1="64.6713" x2="264.845" y2="215.059" gradientUnits="userSpaceOnUse">
<stop offset="0.24" stop-color="#AC945D"/>
<stop offset="0.48" stop-color="white"/>
<stop offset="0.85" stop-color="white"/>
</linearGradient>
</defs>
</svg>
