<svg width="286" height="112" viewBox="0 0 286 112" fill="none" xmlns="http://www.w3.org/2000/svg">
<g filter="url(#filter0_i_42_3318)">
<g clip-path="url(#clip0_42_3318)">
<path d="M175.928 363.5C175.928 363.5 451.624 77.4594 549.124 116.461C646.624 155.462 621.123 240.461 671.623 306.461C722.124 372.461 923.332 359.506 923.332 359.506" stroke="white" stroke-opacity="0.02" stroke-width="32"/>
<g filter="url(#filter1_f_42_3318)">
<path d="M175.928 363.5C175.928 363.5 451.624 77.4594 549.124 116.461C646.624 155.462 621.123 240.461 671.623 306.461C722.124 372.461 923.332 359.506 923.332 359.506" stroke="white" stroke-opacity="0.02" stroke-width="32"/>
</g>
<g clip-path="url(#clip1_42_3318)">
<path d="M84.1523 59.4186C88.2919 59.4186 94.2056 58.5597 94.2056 53.6705C94.2056 53.2741 94.2056 52.9438 94.0741 52.5474L91.643 41.8441C91.0516 39.4656 90.5916 38.4085 86.452 36.3603C83.2981 34.7086 76.3331 31.9998 74.2961 31.9998C72.3906 31.9998 71.7992 34.5104 69.5652 34.5104C67.3968 34.5104 65.7541 32.6605 63.7172 32.6605C61.7459 32.6605 60.4318 33.9818 59.4462 36.7568C59.4462 36.7568 56.6864 44.619 56.3579 45.7422C56.2922 45.9404 56.2922 46.1386 56.2922 46.4029C56.2265 49.4421 68.1853 59.4186 84.1523 59.4186ZM94.8626 55.6526C95.454 58.3615 95.454 58.6257 95.454 59.0222C95.454 63.647 90.2631 66.2237 83.4952 66.2237C68.0539 66.2237 54.5838 57.1061 54.5838 51.1599C54.5838 50.301 54.7809 49.5082 55.1095 48.7153C49.59 49.0457 42.4279 49.9706 42.4279 56.3794C42.4279 66.7523 66.9368 79.5698 86.3206 79.5698C101.171 79.5698 104.916 72.8307 104.916 67.479C104.982 63.2506 101.368 58.4936 94.8626 55.6526Z" fill="#EE0000"/>
<path d="M94.8628 55.6526C95.4542 58.3615 95.4542 58.6257 95.4542 59.0221C95.4542 63.647 90.2633 66.2237 83.4954 66.2237C68.0541 66.2237 54.584 57.1061 54.584 51.1599C54.584 50.301 54.7811 49.5081 55.1096 48.7153L56.2924 45.7422C56.2267 45.9404 56.2267 46.1386 56.2267 46.4029C56.2267 49.4421 68.1198 59.4186 84.1525 59.4186C88.2921 59.4186 94.2058 58.5597 94.2058 53.6705C94.2058 53.2741 94.2058 52.9438 94.0743 52.5473L94.8628 55.6526Z" fill="white"/>
<path d="M232.717 62.5238C232.717 66.4219 235.083 68.3379 239.354 68.3379C240.668 68.3379 241.982 68.1397 243.231 67.8093V63.2505C242.442 63.5148 241.588 63.647 240.734 63.647C238.96 63.647 238.303 63.1184 238.303 61.4006V54.3972H243.428V49.7063H238.303V43.7601L232.717 44.9493V49.7063H229.038V54.3972H232.717V62.5238ZM215.305 62.5898C215.305 61.4006 216.488 60.806 218.327 60.806C219.445 60.806 220.562 60.9381 221.613 61.2024V63.5809C220.562 64.1755 219.313 64.4398 218.13 64.4398C216.422 64.4398 215.305 63.713 215.305 62.5898ZM217.013 68.404C218.985 68.404 220.562 68.0075 222.073 66.9504V68.0736H227.592V56.3132C227.592 51.8205 224.57 49.376 219.576 49.376C216.751 49.376 213.991 50.0366 211.034 51.358L213.005 55.5204C215.174 54.5954 216.948 54.0669 218.525 54.0669C220.824 54.0669 222.007 54.9919 222.007 56.8418V57.7668C220.627 57.4364 219.247 57.2382 217.868 57.2382C213.137 57.2382 210.311 59.2203 210.311 62.7881C210.377 65.9594 212.939 68.404 217.013 68.404ZM186.656 68.0736H192.57V58.5596H202.492V68.0736H208.471V43.7601H202.558V53.1419H192.636V43.7601H186.722L186.656 68.0736ZM164.053 58.89C164.053 56.2472 166.156 54.2651 168.85 54.2651C170.295 54.2651 171.675 54.7276 172.726 55.7186V62.1274C171.675 63.1184 170.295 63.647 168.85 63.5809C166.156 63.5809 164.053 61.5327 164.053 58.89ZM172.792 68.0736H178.311V42.5708L172.726 43.7601V50.6973C171.281 49.9045 169.704 49.442 168.061 49.5081C162.739 49.5081 158.533 53.6705 158.533 58.89C158.468 64.0434 162.542 68.2718 167.667 68.3379C167.733 68.3379 167.798 68.3379 167.864 68.3379C169.638 68.3379 171.346 67.8093 172.792 66.7522V68.0736ZM147.429 53.9347C149.203 53.9347 150.649 55.0579 151.24 56.8418H143.618C144.143 55.0579 145.523 53.9347 147.429 53.9347ZM137.967 58.956C137.967 64.3076 142.304 68.47 147.889 68.47C150.977 68.47 153.211 67.6111 155.511 65.6951L151.831 62.3916C150.977 63.3166 149.663 63.7791 148.152 63.7791C146.18 63.8452 144.406 62.6559 143.683 60.872H156.759V59.4846C156.759 53.6705 152.883 49.442 147.56 49.442C142.369 49.376 138.098 53.5383 138.033 58.7578C137.967 58.7578 137.967 58.8239 137.967 58.956ZM128.374 48.8474C130.345 48.8474 131.462 50.1027 131.462 51.6223C131.462 53.1419 130.345 54.3972 128.374 54.3972H122.526V48.9135H128.374V48.8474ZM116.546 68.0736H122.46V59.2203H126.994L131.528 68.0736H138.164L132.842 58.3614C135.601 57.2382 137.441 54.5294 137.376 51.4902C137.376 47.1296 133.959 43.7601 128.834 43.7601H116.48V68.0736H116.546Z" fill="black"/>
</g>
</g>
<path d="M4.42786 0.999756H281.428C283.085 0.999756 284.428 2.3429 284.428 3.99976V107.57C284.428 109.227 283.085 110.57 281.428 110.57H4.42786C2.77101 110.57 1.42786 109.227 1.42786 107.57V3.99975C1.42786 2.3429 2.771 0.999756 4.42786 0.999756Z" stroke="white" stroke-opacity="0.24" stroke-width="2"/>
</g>
<defs>
<filter id="filter0_i_42_3318" x="-119.572" y="-120" width="525" height="351.57" filterUnits="userSpaceOnUse" color-interpolation-filters="sRGB">
<feFlood flood-opacity="0" result="BackgroundImageFix"/>
<feBlend mode="normal" in="SourceGraphic" in2="BackgroundImageFix" result="shape"/>
<feColorMatrix in="SourceAlpha" type="matrix" values="0 0 0 0 0 0 0 0 0 0 0 0 0 0 0 0 0 0 127 0" result="hardAlpha"/>
<feOffset dy="4"/>
<feGaussianBlur stdDeviation="2"/>
<feComposite in2="hardAlpha" operator="arithmetic" k2="-1" k3="1"/>
<feColorMatrix type="matrix" values="0 0 0 0 1 0 0 0 0 1 0 0 0 0 1 0 0 0 0.08 0"/>
<feBlend mode="normal" in2="shape" result="effect1_innerShadow_42_3318"/>
</filter>
<filter id="filter1_f_42_3318" x="122.413" y="54.8062" width="843.94" height="363.729" filterUnits="userSpaceOnUse" color-interpolation-filters="sRGB">
<feFlood flood-opacity="0" result="BackgroundImageFix"/>
<feBlend mode="normal" in="SourceGraphic" in2="BackgroundImageFix" result="shape"/>
<feGaussianBlur stdDeviation="21" result="effect1_foregroundBlur_42_3318"/>
</filter>
<clipPath id="clip0_42_3318">
<path d="M0.427856 3.99975C0.427856 1.79061 2.21872 -0.000244141 4.42786 -0.000244141H281.428C283.637 -0.000244141 285.428 1.79062 285.428 3.99976V107.57C285.428 109.779 283.637 111.57 281.428 111.57H4.42786C2.21872 111.57 0.427856 109.779 0.427856 107.57V3.99975Z" fill="white"/>
</clipPath>
<clipPath id="clip1_42_3318">
<rect width="201" height="47.57" fill="white" transform="translate(42.4279 31.9998)"/>
</clipPath>
</defs>
</svg>
