<?xml version="1.0" encoding="utf-8"?>
<!-- Generator: Adobe Illustrator 26.1.0, SVG Export Plug-In . SVG Version: 6.00 Build 0)  -->
<svg version="1.1" id="Layer_1" xmlns="http://www.w3.org/2000/svg" xmlns:xlink="http://www.w3.org/1999/xlink" x="0px" y="0px"
	 viewBox="0 0 60 60" style="enable-background:new 0 0 60 60;" xml:space="preserve">
<style type="text/css">
	.st0{fill:none;stroke:#313580;stroke-miterlimit:10;}
	.st1{fill:none;stroke:#313580;stroke-width:2;stroke-miterlimit:10;}
	.st2{fill:none;stroke:#313580;stroke-linecap:round;stroke-linejoin:round;stroke-miterlimit:10;}
	.st3{fill:#313580;stroke:#313580;stroke-linecap:round;stroke-linejoin:round;stroke-miterlimit:10;}
	.st4{fill:#313580;}
	.st5{fill:none;stroke:#313580;stroke-width:0.5;stroke-linecap:round;stroke-linejoin:round;stroke-miterlimit:10;}
	.st6{fill:none;stroke:#313580;stroke-width:0.9663;stroke-linecap:round;stroke-linejoin:round;stroke-miterlimit:10;}
	.st7{fill:none;stroke:#313580;stroke-width:0.9663;stroke-linecap:round;stroke-linejoin:round;}
	.st8{fill:none;stroke:#313580;stroke-width:1.9326;stroke-linecap:round;stroke-linejoin:round;stroke-miterlimit:10;}
	.st9{fill:none;stroke:#313580;stroke-width:0.9344;stroke-linecap:round;stroke-linejoin:round;}
	.st10{fill:none;stroke:#313580;stroke-width:0.9344;stroke-linecap:round;stroke-linejoin:round;stroke-miterlimit:10;}
</style>
<path class="st2" d="M28.87,35.23h2.57l0.25-1.75c0.77-0.17,1.48-0.48,2.13-0.88l1.41,1.06l1.82-1.82L36,30.42
	c0.41-0.65,0.71-1.36,0.88-2.13l1.75-0.25v-2.57l-1.75-0.25c-0.17-0.77-0.48-1.48-0.88-2.13l1.06-1.41l-1.82-1.82l-1.41,1.06
	c-0.65-0.41-1.36-0.71-2.13-0.88l-0.25-1.75h-2.57l-0.25,1.75c-0.77,0.17-1.48,0.48-2.13,0.88l-1.41-1.06l-1.82,1.82l1.06,1.41
	c-0.41,0.65-0.71,1.36-0.88,2.13l-1.75,0.25v2.57l1.75,0.25c0.17,0.77,0.48,1.48,0.88,2.13l-1.06,1.41l1.82,1.82l1.41-1.06
	c0.65,0.41,1.36,0.71,2.13,0.88L28.87,35.23z"/>
<path class="st2" d="M30.16,30.59c-2.12,0-3.83-1.71-3.83-3.83s1.72-3.83,3.83-3.83c2.12,0,3.83,1.72,3.83,3.83
	S32.27,30.59,30.16,30.59z"/>
<path class="st2" d="M23.71,48.51C13.95,46.01,7.55,37.3,7.55,26.76c0-3.46,0.4-5.88,1.78-8.81"/>
<path class="st2" d="M50.74,17.39c1.39,2.93,2.02,5.91,2.02,9.36c0,10.64-6.49,19.27-16.39,21.67"/>
<path class="st2" d="M17.63,8.01c3.68-2.61,7.68-3.87,12.53-3.87c4.57,0,8.83,1.36,12.39,3.69"/>
<line class="st2" x1="18.17" y1="7.59" x2="17.78" y2="7.84"/>
<polygon class="st2" points="30.05,41.64 23.71,45.3 23.71,52.61 30.05,56.26 36.38,52.61 36.38,45.3 "/>
<polyline class="st2" points="41.33,4.39 42.55,7.9 39.04,9.12 "/>
<polyline class="st2" points="5.84,20.04 9.12,18.29 10.87,21.56 "/>
<polyline class="st2" points="40.34,49.95 36.92,48.5 38.36,45.08 "/>
<polygon class="st2" points="11.3,4.36 4.97,8.01 4.97,15.32 11.3,18.98 17.63,15.32 17.63,8.01 "/>
<g>
	<rect x="45.97" y="4.15" class="st2" width="10.59" height="10.59"/>
	<g>
		<ellipse class="st4" cx="54.73" cy="5.76" rx="0.59" ry="0.6"/>
		<ellipse class="st4" cx="53.16" cy="5.76" rx="0.59" ry="0.6"/>
	</g>
	<polyline class="st2" points="44.62,5.16 44.62,15.93 55.82,15.93 	"/>
	<polyline class="st2" points="43.34,6.36 43.34,17.13 54.53,17.13 	"/>
</g>
<g>
	<rect x="28.09" y="45.5" class="st5" width="5.3" height="5.3"/>
	<g>
		<circle class="st4" cx="32.33" cy="46.4" r="0.35"/>
		<circle class="st4" cx="31.39" cy="46.4" r="0.35"/>
	</g>
	<polyline class="st5" points="27.35,46.12 27.35,51.56 32.95,51.56 	"/>
	<polyline class="st5" points="26.65,46.87 26.65,52.31 32.25,52.31 	"/>
</g>
</svg>
